<?xml version="1.0" encoding="utf-8"?>
<!DOCTYPE svg PUBLIC "-//W3C//DTD SVG 1.1//EN" "http://www.w3.org/Graphics/SVG/1.1/DTD/svg11.dtd">
<svg version="1.1" id="Layer_1" xmlns="http://www.w3.org/2000/svg" xmlns:xlink="http://www.w3.org/1999/xlink" x="0px" y="0px"
	 width="141.732px" height="141.73px" viewBox="0 0 141.732 141.73" enable-background="new 0 0 141.732 141.73"
	 xml:space="preserve">
<path fill="#E67E22" d="M65.572,139.254c2.925,2.924,7.665,2.924,10.589,0l63.096-63.094c2.925-2.925,2.925-7.665,0-10.59
	L76.161,2.477c-2.924-2.924-7.664-2.924-10.589,0L2.477,65.571c-2.924,2.925-2.924,7.665,0,10.59L65.572,139.254z"/>
<path fill="#FFFFFF" d="M69.066,44.066h-2.877c-0.707,0-1.283,0.576-1.283,1.28v12.16H53.591c-0.528,0-1.184,0.122-1.811,0.314
	c-0.634,0.195-1.238,0.464-1.67,0.758l-7.6,5.216c-0.429,0.294-0.643,0.682-0.643,1.072s0.214,0.778,0.643,1.072l7.6,5.216
	c0.432,0.294,1.037,0.563,1.67,0.758c0.627,0.192,1.283,0.313,1.811,0.313h11.315v28.16c0,0.707,0.576,1.28,1.28,1.28h2.88
	c0.707,0,1.28-0.575,1.28-1.28v-55.04C70.346,44.641,69.773,44.066,69.066,44.066z M105.223,57.397l-7.601-5.216
	c-0.429-0.294-1.034-0.563-1.667-0.758c-0.63-0.195-1.285-0.317-1.814-0.317H72.266l2.563,14.72h19.312
	c0.529,0,1.185-0.122,1.814-0.314c0.631-0.192,1.238-0.464,1.667-0.755l7.601-5.216c0.432-0.298,0.643-0.685,0.643-1.075
	S105.655,57.688,105.223,57.397z"/>
</svg>
