<?xml version="1.0" encoding="UTF-8" standalone="no"?>
<svg id="Layer_1" xmlns:rdf="http://www.w3.org/1999/02/22-rdf-syntax-ns#" xmlns="http://www.w3.org/2000/svg" xml:space="preserve" height="141" width="141" version="1.1" y="0px" x="0px" xmlns:cc="http://creativecommons.org/ns#" enable-background="new 0 0 141.732 141.73" viewBox="0 0 141.00001 141" xmlns:dc="http://purl.org/dc/elements/1.1/"><path id="path3" fill="#143e7f" d="m65.211 138.81c2.9215 2.9206 7.6559 2.9206 10.576 0l63.023-63.021c2.9225-2.9216 2.9225-7.6561 0-10.578l-63.023-63.02c-2.9205-2.9216-7.6549-2.9216-10.576 0l-63.021 63.021c-2.9205 2.9216-2.9205 7.6561 0 10.578l63.02 63.02z"/><g id="g5" fill="#fff" transform="translate(-0.284 -0.73)"><path id="path7" d="m104.71 62.073c-0.01-3.323-2.393-6.155-5.467-6.552l-34.342-4.73c-5.404-0.703-11.105 2.411-11.041 7.044v1.796l5.821 0.001v-1.529c-0.119-3.017 2.976-5.32 6.791-4.855l32.77 4.182c2.119 0.345 3.74 2.176 3.809 4.581 0 0 0.002 18.191 0.002 19.622-0.025 2.082-1.762 4.448-4.209 4.848-0.176 0.018-32.325 4.132-32.325 4.132-3.915 0.514-6.867-1.566-6.836-4.855v-1.833l-5.823-0.01v2.235c0.013 4.768 5.637 7.626 11.041 6.921l34.398-4.737 0.062-0.019c3.148-0.489 5.348-3.345 5.35-6.396l-0.002-0.068v-19.778"/><path id="path9" d="m38.816 76.714c0.629 0.355 2.483 1.145 4.312 1.145 1.939 0 2.622-0.844 2.622-2.046 0-1.255-0.847-1.609-2.32-2.185l-1.121-0.436c-3.141-1.227-4.095-2.921-4.095-5.624 0-3.603 2.892-5.652 6.933-5.652 1.449 0 3.25 0.136 4.807 0.765l-0.218 3.742c-0.901-0.463-2.458-0.958-3.932-0.958-1.529 0-2.458 0.627-2.458 1.803 0 0.981 0.491 1.42 2.183 2.184l2.293 1.038c1.72 0.792 3.222 1.992 3.222 4.83 0 4.178-3.003 6.31-7.452 6.31-2.295 0-4.126-0.493-5.079-0.737l0.303-4.179"/><rect id="rect11" height="19.057" width="5.814" y="62.244" x="53.863"/><path id="path13" d="m68.826 77.641h1.119c2.946 0 4.422-2.102 4.422-5.787 0-4.886-2.348-5.842-5.132-5.842h-0.41v11.629m-5.131-15.397h7.344c5.598 0 8.736 3.743 8.736 9.42 0 6.605-3.496 9.637-9.527 9.637h-6.553v-19.057z"/><polygon id="polygon15" points="93.833 75.377 93.778 75.377 88.784 62.244 82.829 62.244 82.829 81.301 87.307 81.301 87.307 68.087 87.419 68.087 92.305 81.301 98.309 81.301 98.309 62.244 93.833 62.244"/></g></svg>
