<?xml version="1.0" encoding="UTF-8" standalone="no"?>
<!-- Created with Inkscape (http://www.inkscape.org/) -->

<svg
   xmlns:dc="http://purl.org/dc/elements/1.1/"
   xmlns:cc="http://creativecommons.org/ns#"
   xmlns:rdf="http://www.w3.org/1999/02/22-rdf-syntax-ns#"
   xmlns:svg="http://www.w3.org/2000/svg"
   xmlns="http://www.w3.org/2000/svg"
   xmlns:sodipodi="http://sodipodi.sourceforge.net/DTD/sodipodi-0.dtd"
   xmlns:inkscape="http://www.inkscape.org/namespaces/inkscape"
   id="svg3020"
   version="1.1"
   inkscape:version="0.48.2 r9819"
   width="244.22517"
   height="140"
   xml:space="preserve"
   sodipodi:docname="SIDN_company_behind_nl-1.pdf"><metadata
     id="metadata3026"><rdf:RDF><cc:Work
         rdf:about=""><dc:format>image/svg+xml</dc:format><dc:type
           rdf:resource="http://purl.org/dc/dcmitype/StillImage" /><dc:title></dc:title></cc:Work></rdf:RDF></metadata><defs
     id="defs3024"><clipPath
       clipPathUnits="userSpaceOnUse"
       id="clipPath3036"><path
         d="m 13,564.4201 587.6352,0 0,-336.3396 -587.6352,0 0,336.3396 z"
         id="path3038"
         inkscape:connector-curvature="0" /></clipPath><clipPath
       clipPathUnits="userSpaceOnUse"
       id="clipPath3042"><path
         d="m 13,228 586,0 0,336 -586,0 0,-336 z"
         id="path3044"
         inkscape:connector-curvature="0" /></clipPath><clipPath
       clipPathUnits="userSpaceOnUse"
       id="clipPath3052"><path
         d="m 13,228 586,0 0,336 -586,0 0,-336 z"
         id="path3054"
         inkscape:connector-curvature="0" /></clipPath><clipPath
       clipPathUnits="userSpaceOnUse"
       id="clipPath3084"><path
         d="m 13,564.4201 587.6352,0 0,-336.3396 -587.6352,0 0,336.3396 z"
         id="path3086"
         inkscape:connector-curvature="0" /></clipPath><clipPath
       clipPathUnits="userSpaceOnUse"
       id="clipPath3090"><path
         d="m 13,228 586,0 0,336 -586,0 0,-336 z"
         id="path3092"
         inkscape:connector-curvature="0" /></clipPath><clipPath
       clipPathUnits="userSpaceOnUse"
       id="clipPath3102"><path
         d="m 13,228 586,0 0,336 -586,0 0,-336 z"
         id="path3104"
         inkscape:connector-curvature="0" /></clipPath></defs><sodipodi:namedview
     pagecolor="#ffffff"
     bordercolor="#666666"
     borderopacity="1"
     objecttolerance="10"
     gridtolerance="10"
     guidetolerance="10"
     inkscape:pageopacity="0"
     inkscape:pageshadow="2"
     inkscape:window-width="1141"
     inkscape:window-height="646"
     id="namedview3022"
     showgrid="false"
     fit-margin-top="0"
     fit-margin-left="0"
     fit-margin-right="0"
     fit-margin-bottom="0"
     inkscape:zoom="1.0907375"
     inkscape:cx="382.5"
     inkscape:cy="119.89778"
     inkscape:window-x="0"
     inkscape:window-y="22"
     inkscape:window-maximized="0"
     inkscape:current-layer="g3028" /><g
     id="g3028"
     inkscape:groupmode="layer"
     inkscape:label="SIDN_company_behind_nl-1"
     transform="matrix(1.25,0,0,-1.25,-3.75e-8,140)"><g
       id="g3030" /><g
       id="g3124"
       transform="matrix(0.33341321,0,0,0.33341321,-4.3343717,-76.045052)"><g
         id="g3032"><g
           clip-path="url(#clipPath3036)"
           id="g3034"><g
             clip-path="url(#clipPath3042)"
             id="g3040"><path
               id="path3046"
               style="fill:#142c61;fill-opacity:1;fill-rule:nonzero;stroke:none"
               d="m 600.6111,494.6377 c -0.0551,20.3757 -14.6645,37.7361 -33.5158,40.1784 l -210.559,28.9948 c -33.1279,4.321 -68.0889,-14.7745 -67.6917,-43.1829 l 0,-11.0171 35.6924,-0.0121 0,9.3827 c -0.73,18.497 18.2433,32.6193 41.637,29.7677 l 200.9213,-25.636 c 12.9858,-2.1215 22.9401,-13.3467 23.3601,-28.089 0,0 0.0121,-111.5402 0.0121,-120.3137 -0.1543,-12.7509 -10.7971,-27.2718 -25.8131,-29.7141 -1.0722,-0.1207 -198.1932,-25.3367 -198.1932,-25.3367 -24.0029,-3.1495 -42.1014,9.6014 -41.9135,29.757 l 0,11.2493 -35.7031,0.055 0,-13.6915 c 0.0765,-29.227 34.5638,-46.7525 67.6917,-42.4422 l 210.9012,29.0498 0.3999,0.1101 c 19.3048,3.0072 32.7737,20.5098 32.7978,39.2175 l -0.0147,0.4093 -0.009,121.2637"
               inkscape:connector-curvature="0" /></g></g></g><g
         id="g3048"><g
           clip-path="url(#clipPath3052)"
           id="g3050"><path
             id="path3056"
             style="fill:#142c61;fill-opacity:1;fill-rule:nonzero;stroke:none"
             d="m 196.5878,404.8782 c 3.8567,-2.1766 15.2267,-7.0276 26.4425,-7.0276 11.8894,0 16.0775,5.1811 16.0775,12.5509 0,7.7026 -5.1932,9.8685 -14.2217,13.3937 l -6.8733,2.6744 c -19.2592,7.5242 -25.1059,17.9012 -25.1059,34.4766 0,22.088 17.7361,34.6537 42.5106,34.6537 8.8849,0 19.9235,-0.8307 29.4712,-4.686 l -1.3379,-22.9401 c -5.5247,2.8395 -15.0724,5.8682 -24.1102,5.8682 -9.3706,0 -15.0617,-3.8459 -15.0617,-11.0507 0,-6.0225 3.0046,-8.7077 13.3816,-13.3923 l 14.0552,-6.3647 c 10.5529,-4.8511 19.7571,-12.2115 19.7571,-29.6148 0,-25.6132 -18.4084,-38.6768 -45.691,-38.6768 -14.0673,0 -25.2938,3.0073 -31.1392,4.5196 l 1.8452,25.6159"
             inkscape:connector-curvature="0" /><path
             id="path3058"
             style="fill:#142c61;fill-opacity:1;fill-rule:nonzero;stroke:none"
             d="m 288.8446,493.5977 35.6481,0 0,-116.8434 -35.6481,0 0,116.8434 z"
             inkscape:connector-curvature="0" /><path
             id="path3060"
             style="fill:#142c61;fill-opacity:1;fill-rule:nonzero;stroke:none"
             d="m 349.1222,493.5977 45.0308,0 c 34.3101,0 53.5586,-22.9494 53.5586,-57.7574 0,-40.5085 -21.4264,-59.086 -58.411,-59.086 l -40.1784,0 0,116.8434 z m 31.472,-94.4106 6.8586,0 c 18.0689,0 27.1188,12.8838 27.1188,35.483 0,29.9556 -14.3988,35.8225 -31.4707,35.8225 l -2.5067,0 0,-71.3055"
             inkscape:connector-curvature="0" /><path
             id="path3062"
             style="fill:#142c61;fill-opacity:1;fill-rule:nonzero;stroke:none"
             d="m 524.5444,376.7543 36.829,0 0,116.8434 -27.4597,0 0,-80.5204 -0.3328,0 -30.6172,80.5204 -36.5122,0 0,-116.8434 27.4583,0 0,81.0196 0.675,0 29.9596,-81.0196"
             inkscape:connector-curvature="0" /><path
             id="path3064"
             style="fill:#142c61;fill-opacity:1;fill-rule:nonzero;stroke:none"
             d="m 537.9006,248.2469 8.1977,0 0,-8.1415 -8.1977,0 0,8.1415 z"
             inkscape:connector-curvature="0" /><path
             id="path3066"
             style="fill:#142c61;fill-opacity:1;fill-rule:nonzero;stroke:none"
             d="m 571.627,240.1054 0,17.3309 c 0,3.9063 -2.4745,5.2254 -4.7316,5.2254 -2.2558,0 -4.7853,-1.3191 -4.7853,-5.2254 l 0,-17.3309 -7.1538,0 0,28.6647 6.9887,0 0,-2.6408 c 1.868,1.9806 4.5102,2.971 7.1511,2.971 2.861,0 5.1718,-0.9354 6.7687,-2.5296 2.308,-2.3121 2.9146,-5.008 2.9146,-8.1441 l 0,-18.3212 -7.1524,0"
             inkscape:connector-curvature="0" /><path
             id="path3068"
             style="fill:#142c61;fill-opacity:1;fill-rule:nonzero;stroke:none"
             d="m 595.6715,240.1054 c -5.8897,0 -8.3642,4.1264 -8.3642,8.1965 l 0,30.9768 7.1511,0 0,-30.5367 c 0,-1.7042 0.7152,-2.5832 2.5308,-2.5832 l 2.7523,0 0,-6.0534 -4.07,0"
             inkscape:connector-curvature="0" /><path
             id="path3070"
             style="fill:#142c61;fill-opacity:1;fill-rule:nonzero;stroke:none"
             d="m 23.3435,240.1054 c -4.62156,0 -6.93234,3.2461 -6.93234,7.2625 l 0,16.6156 -3.41116,0 0,3.0261 3.41116,0 0,8.4728 3.96134,0 0,-8.4728 5.77695,0 0,-3.0261 -5.77695,0 0,-16.5056 c 0,-2.4758 1.15539,-3.9613 3.68624,-3.9613 l 2.09071,0 0,-3.4112 -2.80595,0"
             inkscape:connector-curvature="0" /><path
             id="path3072"
             style="fill:#142c61;fill-opacity:1;fill-rule:nonzero;stroke:none"
             d="m 52.44702,240.1054 0,16.7257 c 0,4.7316 -2.52952,7.1524 -6.6009,7.1524 -4.07272,0 -6.76729,-2.4758 -6.76729,-7.1524 l 0,-16.7257 -3.96268,0 0,39.1733 3.96268,0 0,-15.0751 c 1.98067,2.2558 4.56521,3.3011 7.59257,3.3011 6.10707,0 9.7383,-3.9063 9.7383,-10.0134 l 0,-17.3859 -3.96268,0"
             inkscape:connector-curvature="0" /><path
             id="path3074"
             style="fill:#142c61;fill-opacity:1;fill-rule:nonzero;stroke:none"
             d="m 83.09239,260.0772 c -1.04401,2.4758 -3.46617,4.0714 -6.3258,4.0714 -2.86231,0 -5.28179,-1.5956 -6.32848,-4.0714 -0.60386,-1.4855 -0.7139,-2.3108 -0.82394,-4.5115 l 14.30485,0 c -0.11004,2.2007 -0.22008,3.026 -0.82663,4.5115 z m -13.47822,-7.4839 c 0,-5.9406 2.80461,-9.3518 7.97636,-9.3518 3.13606,0 4.95168,0.9353 7.0974,3.081 l 2.69726,-2.3658 c -2.75227,-2.7509 -5.28179,-4.1814 -9.9047,-4.1814 -7.15242,0 -11.829,4.2915 -11.829,13.8647 0,8.748 4.23777,13.8647 11.1151,13.8647 6.98737,0 11.11242,-5.0617 11.11242,-13.0944 l 0,-1.817 -18.26484,0"
             inkscape:connector-curvature="0" /><path
             id="path3076"
             style="fill:#142c61;fill-opacity:1;fill-rule:nonzero;stroke:none"
             d="m 122.7058,239.7753 c -6.8223,0 -11.9941,4.6216 -11.9941,13.8647 0,9.2432 5.1718,13.8647 11.9941,13.8647 3.7413,0 6.1071,-0.9903 8.913,-4.0163 l -2.6959,-2.5309 c -2.0357,2.2558 -3.6312,3.026 -6.2171,3.026 -2.6409,0 -4.8416,-1.0453 -6.2721,-3.081 -1.2654,-1.7606 -1.7606,-3.8513 -1.7606,-7.2625 0,-3.4111 0.4952,-5.5018 1.7606,-7.2624 1.4305,-2.0357 3.6312,-3.0811 6.2721,-3.0811 2.5859,0 4.1814,0.8253 6.2171,3.0811 l 2.6959,-2.5859 c -2.8059,-3.026 -5.1717,-4.0164 -8.913,-4.0164"
             inkscape:connector-curvature="0" /><path
             id="path3078"
             style="fill:#142c61;fill-opacity:1;fill-rule:nonzero;stroke:none"
             d="m 154.0034,262.0029 c -1.2655,1.2654 -3.0261,1.9806 -4.9517,1.9806 -1.9257,0 -3.6312,-0.7152 -4.8967,-1.9806 -1.9806,-1.9807 -2.2007,-5.3369 -2.2007,-8.3629 0,-3.026 0.2201,-6.3821 2.2007,-8.3628 1.2655,-1.2654 2.971,-1.9807 4.8967,-1.9807 1.9256,0 3.6862,0.7153 4.9517,1.9807 1.9806,1.9807 2.1457,5.3368 2.1457,8.3628 0,3.026 -0.1651,6.3822 -2.1457,8.3629 z m 2.8059,-19.1465 c -1.8706,-1.8707 -4.4565,-3.0811 -7.7576,-3.0811 -3.3011,0 -5.887,1.2104 -7.7576,3.0811 -2.751,2.8046 -3.3012,6.6022 -3.3012,10.7836 0,4.1814 0.5502,7.9777 3.3012,10.7837 1.8706,1.8706 4.4565,3.081 7.7576,3.081 3.3011,0 5.887,-1.2104 7.7576,-3.081 2.7509,-2.806 3.3011,-6.6023 3.3011,-10.7837 0,-4.1814 -0.5502,-7.979 -3.3011,-10.7836"
             inkscape:connector-curvature="0" /></g></g><g
         id="g3080"><g
           clip-path="url(#clipPath3084)"
           id="g3082"><g
             clip-path="url(#clipPath3090)"
             id="g3088"><path
               id="path3094"
               style="fill:#142c61;fill-opacity:1;fill-rule:nonzero;stroke:none"
               d="m 204.4554,240.1054 0,16.6707 c 0,4.7866 -2.5858,7.2074 -6.6572,7.2074 -3.9614,0 -6.7673,-2.4758 -6.7673,-6.7673 l 0,-17.1108 -3.9613,0 0,16.6707 c 0,4.7866 -2.5859,7.2074 -6.6573,7.2074 -4.0714,0 -6.7673,-2.4758 -6.7673,-7.2074 l 0,-16.6707 -3.9613,0 0,27.0692 3.9613,0 0,-2.971 c 1.9257,2.2007 4.6216,3.3011 7.6476,3.3011 3.7413,0 6.6573,-1.5405 8.3078,-4.5115 2.0907,2.971 5.1167,4.5115 8.913,4.5115 2.916,0 5.3368,-0.9353 6.9874,-2.5308 1.9256,-1.8707 2.916,-4.4015 2.916,-7.5376 l 0,-17.3309 -3.9614,0"
               inkscape:connector-curvature="0" /><path
               id="path3096"
               style="fill:#142c61;fill-opacity:1;fill-rule:nonzero;stroke:none"
               d="m 229.9291,263.9835 c -5.887,0 -6.8223,-5.0617 -6.8223,-10.3435 0,-5.2818 0.9353,-10.3435 6.8223,-10.3435 5.887,0 6.7673,5.0617 6.7673,10.3435 0,5.2818 -0.8803,10.3435 -6.7673,10.3435 z m 7.4275,-21.8437 c -1.4305,-1.4292 -3.8513,-2.3645 -6.6023,-2.3645 -2.971,0 -5.4468,0.7153 -7.6475,3.5212 l 0,-15.2965 -3.9614,0 0,39.1746 3.9614,0 0,-3.1911 c 2.2007,2.861 4.6765,3.5212 7.6475,3.5212 2.751,0 5.1718,-0.9353 6.6023,-2.3658 2.7509,-2.7509 3.3011,-7.2624 3.3011,-11.4989 0,-4.2364 -0.5502,-8.7479 -3.3011,-11.5002"
               inkscape:connector-curvature="0" /></g></g></g><g
         id="g3098"><g
           clip-path="url(#clipPath3102)"
           id="g3100"><path
             id="path3106"
             style="fill:#142c61;fill-opacity:1;fill-rule:nonzero;stroke:none"
             d="m 265.5811,252.5933 -7.5925,0 c -4.0714,0 -6.0521,-1.6492 -6.0521,-4.7853 0,-3.136 1.9257,-4.6215 6.2171,-4.6215 2.3108,0 4.3465,0.165 6.0521,1.8156 0.9353,0.8803 1.3754,2.4208 1.3754,4.6766 l 0,2.9146 z m 0,-12.4879 0,2.5859 c -2.2007,-2.2007 -4.1814,-2.916 -7.8126,-2.916 -3.7413,0 -5.942,0.7153 -7.6476,2.4745 -1.3204,1.3218 -2.0357,3.3562 -2.0357,5.5032 0,4.7303 3.3011,7.8127 9.3532,7.8127 l 8.1427,0 0,2.5859 c 0,3.9613 -1.9806,5.942 -6.9323,5.942 -3.4662,0 -5.2268,-0.8253 -6.8223,-3.0811 l -2.6959,2.4759 c 2.4208,3.136 5.1717,4.0163 9.5732,4.0163 7.2625,0 10.8387,-3.136 10.8387,-9.023 l 0,-18.3763 -3.9614,0"
             inkscape:connector-curvature="0" /><path
             id="path3108"
             style="fill:#142c61;fill-opacity:1;fill-rule:nonzero;stroke:none"
             d="m 297.6006,240.1054 0,16.6707 c 0,4.7866 -2.5858,7.2074 -6.6572,7.2074 -4.0714,0 -6.7123,-2.4758 -6.7123,-7.2074 l 0,-16.6707 -3.9613,0 0,27.0692 3.9613,0 0,-2.971 c 1.9257,2.2007 4.5666,3.3011 7.5926,3.3011 2.916,0 5.2818,-0.8803 6.9323,-2.5308 1.9257,-1.8707 2.806,-4.4015 2.806,-7.5376 l 0,-17.3309 -3.9614,0"
             inkscape:connector-curvature="0" /><path
             id="path3110"
             style="fill:#142c61;fill-opacity:1;fill-rule:nonzero;stroke:none"
             d="m 319.0029,233.5582 c -0.5502,-1.4868 -1.1567,-2.4758 -1.927,-3.1911 -1.4291,-1.3754 -3.3548,-1.8719 -5.2805,-1.8719 l -1.7069,0 0,3.5212 1.2104,0 c 2.7523,0 3.5776,0.8816 4.4579,3.3561 l 1.9243,5.2831 -9.737,26.519 4.2915,0 7.4275,-21.7337 7.3725,21.7337 4.2901,0 -12.3228,-33.6164"
             inkscape:connector-curvature="0" /><path
             id="path3112"
             style="fill:#142c61;fill-opacity:1;fill-rule:nonzero;stroke:none"
             d="m 363.5666,263.9835 c -5.887,0 -6.8223,-5.0617 -6.8223,-10.3435 0,-5.2818 0.9353,-10.3435 6.8223,-10.3435 5.887,0 6.7673,5.0617 6.7673,10.3435 0,5.2818 -0.8803,10.3435 -6.7673,10.3435 z m 7.4276,-21.8437 c -1.4305,-1.4292 -3.85,-2.3645 -6.6023,-2.3645 -2.971,0 -5.4468,0.7153 -7.6476,3.5762 l 0,-3.2461 -3.96,0 0,39.1733 3.96,0 0,-15.2402 c 2.2008,2.806 4.6766,3.4662 7.6476,3.4662 2.7523,0 5.1718,-0.9353 6.6023,-2.3658 2.7522,-2.7509 3.3024,-7.2624 3.3024,-11.4989 0,-4.2364 -0.5502,-8.7479 -3.3024,-11.5002"
             inkscape:connector-curvature="0" /><path
             id="path3114"
             style="fill:#142c61;fill-opacity:1;fill-rule:nonzero;stroke:none"
             d="m 399.8239,260.0772 c -1.0453,2.4758 -3.4662,4.0714 -6.3271,4.0714 -2.861,0 -5.2805,-1.5956 -6.3258,-4.0714 -0.6066,-1.4855 -0.7166,-2.3108 -0.8266,-4.5115 l 14.3048,0 c -0.11,2.2007 -0.2201,3.026 -0.8253,4.5115 z m -13.4795,-7.4839 c 0,-5.9406 2.8059,-9.3518 7.979,-9.3518 3.1347,0 4.9503,0.9353 7.0974,3.081 l 2.6946,-2.3658 c -2.7496,-2.7509 -5.2818,-4.1814 -9.902,-4.1814 -7.1538,0 -11.8304,4.2915 -11.8304,13.8647 0,8.748 4.2364,13.8647 11.1138,13.8647 6.9873,0 11.1137,-5.0617 11.1137,-13.0944 l 0,-1.817 -18.2661,0"
             inkscape:connector-curvature="0" /><path
             id="path3116"
             style="fill:#142c61;fill-opacity:1;fill-rule:nonzero;stroke:none"
             d="m 431.4583,240.1054 0,16.7257 c 0,4.7316 -2.5282,7.1524 -6.6009,7.1524 -4.0714,0 -6.7673,-2.4758 -6.7673,-7.1524 l 0,-16.7257 -3.9613,0 0,39.1733 3.9613,0 0,-15.0751 c 1.9807,2.2558 4.5665,3.3011 7.5926,3.3011 6.107,0 9.7396,-3.9063 9.7396,-10.0134 l 0,-17.3859 -3.964,0"
             inkscape:connector-curvature="0" /><path
             id="path3118"
             style="fill:#142c61;fill-opacity:1;fill-rule:nonzero;stroke:none"
             d="m 446.1496,267.1746 3.9613,0 0,-27.0692 -3.9613,0 0,27.0692 z m -0.2201,12.1591 4.4565,0 0,-4.4565 -4.4565,0 0,4.4565 z"
             inkscape:connector-curvature="0" /><path
             id="path3120"
             style="fill:#142c61;fill-opacity:1;fill-rule:nonzero;stroke:none"
             d="m 478.4992,240.1054 0,16.6707 c 0,4.7866 -2.5845,7.2074 -6.6572,7.2074 -4.0701,0 -6.7123,-2.4758 -6.7123,-7.2074 l 0,-16.6707 -3.96,0 0,27.0692 3.96,0 0,-2.971 c 1.927,2.2007 4.5679,3.3011 7.5926,3.3011 2.9173,0 5.2831,-0.8803 6.9323,-2.5308 1.927,-1.8707 2.8073,-4.4015 2.8073,-7.5376 l 0,-17.3309 -3.9627,0"
             inkscape:connector-curvature="0" /><path
             id="path3122"
             style="fill:#142c61;fill-opacity:1;fill-rule:nonzero;stroke:none"
             d="m 502.5437,263.9835 c -5.8883,0 -6.8223,-5.0617 -6.8223,-10.3435 0,-5.2818 0.934,-10.3435 6.8223,-10.3435 5.887,0 6.7673,5.0617 6.7673,10.3435 0,5.2818 -0.8803,10.3435 -6.7673,10.3435 z m 6.8223,-23.8781 0,3.2461 c -2.2021,-2.8609 -4.7316,-3.5762 -7.7026,-3.5762 -2.7523,0 -5.1731,0.9353 -6.6022,2.3645 -2.7523,2.7523 -3.3025,7.2638 -3.3025,11.5002 0,4.2365 0.5502,8.748 3.3025,11.4989 1.4291,1.4305 3.8499,2.3658 6.6022,2.3658 2.971,0 5.4455,-0.6602 7.6476,-3.4662 l 0,15.2402 3.96,0 0,-39.1733 -3.905,0"
             inkscape:connector-curvature="0" /></g></g></g></g></svg>