<?xml version="1.0" encoding="utf-8"?>
<!DOCTYPE svg PUBLIC "-//W3C//DTD SVG 1.1//EN" "http://www.w3.org/Graphics/SVG/1.1/DTD/svg11.dtd">
<svg version="1.1" id="Layer_1" xmlns="http://www.w3.org/2000/svg" xmlns:xlink="http://www.w3.org/1999/xlink" x="0px" y="0px"
	 width="141.732px" height="141.73px" viewBox="0 0 141.732 141.73" enable-background="new 0 0 141.732 141.73"
	 xml:space="preserve">
<path fill="#2ECC71" d="M65.572,139.254c2.925,2.924,7.665,2.924,10.589,0l63.096-63.094c2.925-2.925,2.925-7.665,0-10.59
	L76.161,2.477c-2.924-2.924-7.664-2.924-10.589,0L2.477,65.571c-2.924,2.925-2.924,7.665,0,10.59L65.572,139.254z"/>
<path fill="#FFFFFF" d="M49.432,78.028c1.485,6.02,3.373,8.643,9.67,11.398c6.301,2.752,9.293,5.76,11.763,5.76
	c2.47,0,5.271-2.631,11.571-5.389c6.301-2.75,4.621-3.595,6.105-9.606l-17.677,8.595L49.432,78.028L49.432,78.028z M101.302,62.341
	L74.661,47.423c-2.086-1.168-5.501-1.168-7.587,0L40.431,62.341c-2.086,1.168-2.086,3.082,0,4.25l26.64,14.917
	c2.086,1.168,5.501,1.168,7.587,0l17.222-9.645L73.205,67.49c-0.717,0.179-1.507,0.278-2.339,0.278c-3.363,0-6.09-1.622-6.09-3.622
	s2.726-3.626,6.09-3.626c2.611,0,4.835,0.982,5.699,2.355l19.779,6.49l4.957-2.774C103.387,65.423,103.387,63.509,101.302,62.341z
	 M93.16,90.615c-0.202,1.227,4.106,3.251,4.515-0.35c1.854-16.227-1.33-20.898-1.33-20.898l-4.465,2.499
	C91.88,71.864,95.666,75.467,93.16,90.615z"/>
</svg>
