<?xml version="1.0" encoding="UTF-8" standalone="no"?>
<svg
   xmlns:dc="http://purl.org/dc/elements/1.1/"
   xmlns:cc="http://creativecommons.org/ns#"
   xmlns:rdf="http://www.w3.org/1999/02/22-rdf-syntax-ns#"
   xmlns:svg="http://www.w3.org/2000/svg"
   xmlns="http://www.w3.org/2000/svg"
   xml:space="preserve"
   enable-background="new 0 0 141.732 141.73"
   viewBox="0 0 141.00001 141"
   height="141"
   width="141"
   y="0px"
   x="0px"
   id="Layer_1"
   version="1.1"><metadata
     id="metadata21"><rdf:RDF><cc:Work
         rdf:about=""><dc:format>image/svg+xml</dc:format><dc:type
           rdf:resource="http://purl.org/dc/dcmitype/StillImage" /><dc:title></dc:title></cc:Work></rdf:RDF></metadata><defs
     id="defs19" /><path
     style="fill:#143e7f"
     id="path3"
     d="m 65.210534,138.80954 c 2.921529,2.92061 7.655905,2.92061 10.576435,0 L 138.8081,75.788731 c 2.92253,-2.921607 2.92253,-7.656108 0,-10.577715 L 75.786969,2.1912052 c -2.92053,-2.92160693 -7.654906,-2.92160693 -10.576435,0 L 2.1903979,65.212014 c -2.92053053,2.921607 -2.92053053,7.656109 0,10.577716 l 63.0201361,63.01981 z" /><g
     transform="translate(-0.28399999,-0.73000001)"
     id="g5"><path
       style="fill:#ffffff"
       id="path7"
       d="m 104.712,62.073 c -0.01,-3.323 -2.393,-6.155 -5.467,-6.552 l -34.342,-4.73 c -5.404,-0.703 -11.105,2.411 -11.041,7.044 l 0,1.796 5.821,10e-4 0,-1.529 c -0.119,-3.017 2.976,-5.32 6.791,-4.855 l 32.77,4.182 c 2.119,0.345 3.74,2.176 3.809,4.581 0,0 0.002,18.191 0.002,19.622 -0.025,2.082 -1.762,4.448 -4.209,4.848 -0.176,0.018 -32.325,4.132 -32.325,4.132 -3.915,0.514 -6.867,-1.566 -6.836,-4.855 l 0,-1.833 -5.823,-0.01 0,2.235 c 0.013,4.768 5.637,7.626 11.041,6.921 l 34.398,-4.737 0.062,-0.019 c 3.148,-0.489 5.348,-3.345 5.35,-6.396 l -0.002,-0.068 0,-19.778" /><path
       style="fill:#ffffff"
       id="path9"
       d="m 38.816,76.714 c 0.629,0.355 2.483,1.145 4.312,1.145 1.939,0 2.622,-0.844 2.622,-2.046 0,-1.255 -0.847,-1.609 -2.32,-2.185 l -1.121,-0.436 c -3.141,-1.227 -4.095,-2.921 -4.095,-5.624 0,-3.603 2.892,-5.652 6.933,-5.652 1.449,0 3.25,0.136 4.807,0.765 l -0.218,3.742 c -0.901,-0.463 -2.458,-0.958 -3.932,-0.958 -1.529,0 -2.458,0.627 -2.458,1.803 0,0.981 0.491,1.42 2.183,2.184 l 2.293,1.038 c 1.72,0.792 3.222,1.992 3.222,4.83 0,4.178 -3.003,6.31 -7.452,6.31 -2.295,0 -4.126,-0.493 -5.079,-0.737 l 0.303,-4.179" /><rect
       style="fill:#ffffff"
       id="rect11"
       height="19.056999"
       width="5.8140001"
       y="62.243999"
       x="53.862999" /><path
       style="fill:#ffffff"
       id="path13"
       d="m 68.826,77.641 1.119,0 c 2.946,0 4.422,-2.102 4.422,-5.787 0,-4.886 -2.348,-5.842 -5.132,-5.842 l -0.41,0 0,11.629 m -5.131,-15.397 7.344,0 c 5.598,0 8.736,3.743 8.736,9.42 0,6.605 -3.496,9.637 -9.527,9.637 l -6.553,0 0,-19.057 z" /><polygon
       style="fill:#ffffff"
       id="polygon15"
       points="93.833,75.377 93.778,75.377 88.784,62.244 82.829,62.244 82.829,81.301 87.307,81.301 87.307,68.087 87.419,68.087 92.305,81.301 98.309,81.301 98.309,62.244 93.833,62.244 " /></g></svg>