<svg xmlns="http://www.w3.org/2000/svg">
    <symbol viewBox="0 0 24.999999 25.000001" id="icon--arrow--right">
        <title>arrow--right</title>
        <path d="M13.176 22.543L24.5 12.433 13.176 2.455l-2.247 2.47 6.698 5.87H.5v3.405h17.302l-6.828 6.05z" />
    </symbol>
    <symbol viewBox="0 0 24.999999 25.000001" id="icon--bubbles">
        <title>bubbles</title>
        <g fill="#a8abac">
            <path d="M23.595 11.902a15.97 15.97 0 0 0-.286-1.993c-.202-.92-.625-2.01-1.26-2.812.023.156.05.308.07.47.035.315.056.562.075.897.02.42.028.84.024 1.254v.176l-.002.025c-.033 1.717-.306 3.196-.836 4.525a6.882 6.882 0 0 1-1.192 1.966c-.876.985-1.9 1.59-3.434 2.03-1.146.317-2.42.505-3.896.574-.642.088-1.24.132-1.83.132-.33 0-.66-.012-.988-.036a9.364 9.364 0 0 1-1.263.904c1.073.285 2.25.443 3.498.497.55.08 1.114.128 1.692.128.514 0 1.02-.033 1.51-.095 2.084 2.074 4.488 2.446 6.89 2.5v-.507c-1.22-.596-2.207-1.656-2.32-2.877 2.13-.758 3.185-2.302 3.464-4.08.132-.843.166-1.758.14-2.642 0-.048.01-.095.01-.143-.002-.302-.028-.6-.07-.893z"
            />
            <path d="M11.028 1.958c.08 0 .157.008.236.01.366.008.735.02 1.127.042 1.238.07 2.216.18 3.275.408.42.09.783.186 1.157.31.186.06.423.15.594.22.086.037.06.025.142.063.083.038.19.09.27.13.4.2.75.43 1.057.697.74.642 1.168 1.402 1.46 2.415.023.084.016.054.037.14.113.426.194.877.25 1.35.032.283.05.506.066.8.02.416.027.823.022 1.222l.002.04c0 .016-.002.03-.003.045-.025 1.448-.23 2.787-.73 4.036a5.394 5.394 0 0 1-.92 1.53c-.703.788-1.48 1.228-2.716 1.58-1.108.31-2.335.47-3.633.526-.55.08-1.113.127-1.69.127a12.1 12.1 0 0 1-1.512-.096c-2.082 2.074-4.487 2.446-6.89 2.5v-.507c1.223-.596 2.21-1.656 2.32-2.877-2.13-.758-3.183-2.3-3.463-4.08-.132-.842-.165-1.757-.14-2.64 0-.05-.01-.096-.01-.144 0-.302.027-.6.068-.893.064-.752.167-1.444.286-1.993.265-1.22.92-2.737 1.946-3.486.132-.098.32-.22.468-.307l.126-.07c.38-.205.802-.375 1.27-.516.652-.197 1.272-.314 2.055-.413.45-.054.875-.09 1.352-.118.24-.016.36-.02.603-.03.12-.004.283-.007.406-.01.243-.007.478-.01.71-.01.102 0 .204.005.306.006.032-.004.064-.007.096-.008"
            />
        </g>
    </symbol>
    <symbol viewBox="0 0 16 28" id="icon--caret--down">
        <title>caret--down</title>
        <path d="M16 11q0 .406-.297.703l-7 7Q8.406 19 8 19t-.703-.297l-7-7Q0 11.406 0 11t.297-.703T1 10h14q.406 0 .703.297T16 11z" />
    </symbol>
    <symbol viewBox="0 0 10 28" id="icon--caret--left">
        <title>caret--left</title>
        <path d="M10 7v14q0 .406-.297.703T9 22t-.703-.297l-7-7Q1 14.406 1 14t.297-.703l7-7Q8.594 6 9 6t.703.297T10 7z" />
    </symbol>
    <symbol viewBox="0 0 10 28" id="icon--caret--right">
        <title>caret--right</title>
        <path d="M9 14q0 .406-.297.703l-7 7Q1.406 22 1 22t-.703-.297T0 21V7q0-.406.297-.703T1 6t.703.297l7 7Q9 13.594 9 14z" />
    </symbol>
    <symbol viewBox="0 0 16 28" id="icon--caret--up">
        <title>caret--up</title>
        <path d="M16 19q0 .406-.297.703T15 20H1q-.406 0-.703-.297T0 19t.297-.703l7-7Q7.594 11 8 11t.703.297l7 7Q16 18.594 16 19z" />
    </symbol>
    <symbol viewBox="0 0 32 32" id="icon--checkmark--green">
        <title>checkmark--green</title>
        <path fill="#60b044" d="M27 4L12 19l-7-7-5 5 12 12L32 9z" />
    </symbol>
    <symbol viewBox="0 0 32 32" id="icon--checkmark">
        <title>checkmark</title>
        <path d="M27 4L12 19l-7-7-5 5 12 12L32 9z" />
    </symbol>
    <symbol viewBox="0 0 24.999758 25.079001" id="icon--close--inverted">
        <title>close--inverted</title>
        <g fill="#fff">
            <path d="M11.977 0c-.298 0-.6.004-.914.013-.158.006-.368.01-.523.02-.314.012-.47.02-.778.044-.615.045-1.164.104-1.743.19-1.01.158-1.81.348-2.65.666-.602.227-1.146.5-1.636.832l-.163.11a7.46 7.46 0 0 0-.603.495C1.645 3.575.8 6.017.457 7.98.06 10.24-.198 13.99.194 17.1c.393 3.11 1.94 5.79 5.19 6.867 1.13.414 2.354.67 3.744.848 1.417.168 2.812.264 4.16.264 2.193 0 4.258-.258 6.078-.888 1.592-.568 2.596-1.275 3.5-2.543.485-.683.895-1.556 1.19-2.463.83-2.6 1.034-5.438.91-8.6-.02-.47-.045-.83-.087-1.286a18.91 18.91 0 0 0-.32-2.17c-.028-.136-.02-.088-.05-.224-.376-1.63-.928-2.852-1.882-3.885a6.554 6.554 0 0 0-1.36-1.123 8.618 8.618 0 0 0-.35-.207c-.106-.06-.07-.04-.182-.1a9.945 9.945 0 0 0-.766-.354c-.482-.2-.95-.353-1.492-.5-1.365-.363-2.626-.54-4.222-.654-.8-.055-1.524-.082-2.28-.082z"
            />
            <path fill="#000" d="M12.5 15.45l4.54 4.54 2.46-2.458-4.54-4.54L19.5 8.45l-2.46-2.46-4.54 4.542-4.54-4.54L5.5 8.45l4.54 4.54-4.54 4.542 2.46 2.46z" />
        </g>
    </symbol>
    <symbol viewBox="0 0 24.999758 25.079001" id="icon--close--simple">
        <title>close--simple</title>
        <path d="M12.5 15.45l4.54 4.54 2.46-2.458-4.54-4.54L19.5 8.45l-2.46-2.46-4.54 4.542-4.54-4.54L5.5 8.45l4.54 4.54-4.54 4.542 2.46 2.46z" />
    </symbol>
    <symbol viewBox="0 0 24.999758 25.079001" id="icon--close">
        <title>close</title>
        <path d="M11.977 0c-.298 0-.6.004-.914.013-.158.006-.368.01-.523.02-.314.012-.47.02-.778.044-.615.045-1.164.104-1.743.19-1.01.158-1.81.348-2.65.666-.602.227-1.146.5-1.636.832l-.163.11a7.46 7.46 0 0 0-.603.495C1.645 3.575.8 6.017.457 7.98.06 10.24-.198 13.99.194 17.1c.393 3.11 1.94 5.79 5.19 6.867 1.13.414 2.354.67 3.744.848 1.417.168 2.812.264 4.16.264 2.193 0 4.258-.258 6.078-.888 1.592-.568 2.596-1.275 3.5-2.543.485-.683.895-1.556 1.19-2.463.83-2.6 1.034-5.438.91-8.6-.02-.47-.045-.83-.087-1.286a18.91 18.91 0 0 0-.32-2.17c-.028-.136-.02-.088-.05-.224-.376-1.63-.928-2.852-1.882-3.885a6.554 6.554 0 0 0-1.36-1.123 8.618 8.618 0 0 0-.35-.207c-.106-.06-.07-.04-.182-.1a9.945 9.945 0 0 0-.766-.354c-.482-.2-.95-.353-1.492-.5-1.365-.363-2.626-.54-4.222-.654-.8-.055-1.524-.082-2.28-.082z"
        />
        <path fill="#fff" d="M12.5 15.45l4.54 4.54 2.46-2.458-4.54-4.54L19.5 8.45l-2.46-2.46-4.54 4.542-4.54-4.54L5.5 8.45l4.54 4.54-4.54 4.542 2.46 2.46z" />
    </symbol>
    <symbol viewBox="0 0 24.154659 24.15466" id="icon--cross">
        <title>cross</title>
        <g stroke-miterlimit="10" fill="none" stroke="#ee342e" stroke-width="6">
            <path d="M2.12 22.034L22.034 2.122M2.12 2.122l19.913 19.912" />
        </g>
    </symbol>
    <symbol viewBox="0 0 24.999281 25.07235" id="icon--download">
        <title>download</title>
        <path d="M11.44 0c-.125.002-.247.002-.376.006-.158.006-.37.01-.524.02-.314.013-.47.02-.78.044C9.147.115 8.6.173 8.02.26 7.01.417 6.21.608 5.367.926c-.6.227-1.144.5-1.634.832l-.163.11c-.19.14-.434.337-.604.495C1.644 3.568.8 6.01.456 7.97c-.395 2.262-.653 6.014-.26 9.122.39 3.11 1.938 5.79 5.188 6.867 1.13.413 2.354.67 3.744.847a35.72 35.72 0 0 0 4.16.265c2.192 0 4.258-.258 6.078-.888 1.592-.568 2.596-1.275 3.5-2.543.484-.68.894-1.553 1.188-2.46.83-2.6 1.036-5.44.912-8.6-.02-.472-.046-.83-.088-1.285a18.85 18.85 0 0 0-.318-2.17c-.027-.137-.02-.09-.05-.225-.376-1.63-.928-2.852-1.882-3.884a6.498 6.498 0 0 0-1.36-1.125 8.606 8.606 0 0 0-.35-.206c-.106-.06-.07-.04-.182-.098a10.33 10.33 0 0 0-.766-.355c-.482-.197-.95-.352-1.492-.498C17.113.368 15.85.19 14.255.076 14.01.06 13.792.063 13.558.05v16.737l3.652-4.277 1.54 1.398-6.21 7.05-6.29-7.05 1.425-1.37 3.766 4.25V0z"
        />
    </symbol>
    <symbol viewBox="0 0 24 24" id="icon--expand--less">
        <title>expand--less</title>
        <path d="M12 8.016l6 6-1.406 1.406L12 10.828l-4.594 4.594L6 14.016z" />
    </symbol>
    <symbol viewBox="0 0 24 24" id="icon--expand--more">
        <title>expand--more</title>
        <path d="M16.594 8.578L18 9.984l-6 6-6-6 1.406-1.406L12 13.172z" />
    </symbol>
    <symbol viewBox="0 0 24.999758 25.079001" id="icon--facebook">
        <title>facebook</title>
        <path d="M11.976 0c-.298 0-.6.004-.914.013-.158.006-.368.01-.523.02-.315.012-.47.02-.778.044a22.45 22.45 0 0 0-1.743.19C7.01.425 6.21.614 5.37.932c-.602.227-1.146.5-1.636.832l-.163.11a7.42 7.42 0 0 0-.603.495C1.645 3.573.8 6.014.457 7.977.06 10.238-.198 13.992.194 17.1c.393 3.11 1.94 5.79 5.19 6.867 1.13.413 2.354.67 3.744.848 1.417.167 2.812.264 4.16.264 2.193 0 4.258-.258 6.078-.888 1.592-.568 2.596-1.275 3.5-2.543.485-.683.895-1.556 1.19-2.463.83-2.6 1.034-5.44.91-8.6-.02-.47-.045-.83-.087-1.285-.07-.76-.176-1.485-.32-2.17-.028-.138-.02-.09-.05-.225-.376-1.63-.928-2.853-1.882-3.885a6.554 6.554 0 0 0-1.36-1.124 8.618 8.618 0 0 0-.35-.207c-.106-.06-.07-.04-.182-.1-.22-.114-.527-.256-.765-.354-.482-.2-.95-.353-1.49-.5-1.366-.363-2.627-.54-4.223-.654-.8-.054-1.525-.082-2.28-.082z"
        />
        <path d="M13.664 20.063V13.2h2.304l.345-2.676h-2.648V8.816c0-.775.214-1.303 1.326-1.303h1.418V5.12a18.87 18.87 0 0 0-2.064-.105c-2.043 0-3.44 1.247-3.44 3.536v1.974h-2.31V13.2h2.31v6.863h2.76z" fill="#fff" />
    </symbol>
    <symbol viewBox="0 0 25 25.000001" id="icon--feed">
        <title>feed</title>
        <path d="M11.98 0c-.298 0-.6.004-.912.013-.158.006-.367.01-.52.02-.314.012-.47.02-.777.044-.612.045-1.16.103-1.736.19C7.03.424 6.23.613 5.392.93c-.6.226-1.142.498-1.63.83-.098.066-.067.044-.162.11-.19.14-.433.335-.603.493C1.68 3.563.837 5.998.495 7.953.102 10.21-.158 13.95.233 17.047c.39 3.1 1.934 5.773 5.174 6.846 1.125.412 2.346.667 3.732.845 1.412.166 2.802.263 4.146.263 2.185 0 4.245-.256 6.06-.884 1.586-.566 2.587-1.27 3.488-2.535.482-.68.892-1.55 1.185-2.453.827-2.593 1.03-5.42.907-8.572a25.06 25.06 0 0 0-.087-1.282c-.07-.758-.174-1.48-.32-2.163-.026-.137-.017-.09-.046-.225-.376-1.624-.927-2.843-1.878-3.872a6.47 6.47 0 0 0-1.356-1.12 8.59 8.59 0 0 0-.347-.206c-.107-.06-.072-.04-.183-.1-.22-.114-.525-.255-.763-.353-.48-.197-.947-.352-1.487-.497-1.36-.363-2.618-.54-4.21-.653A31.826 31.826 0 0 0 11.98 0z"
        />
        <path d="M8.165 19.197a1.824 1.824 0 0 1-1.828-1.82 1.83 1.83 0 0 1 1.828-1.826 1.83 1.83 0 0 1 1.83 1.826c0 1.008-.817 1.82-1.83 1.82z" fill="#fff" />
        <path d="M12.76 19.213c0-1.72-.668-3.34-1.88-4.55a6.377 6.377 0 0 0-4.54-1.885v-2.633c4.996 0 9.065 4.067 9.065 9.068H12.76z" fill="#fff" />
        <path d="M17.43 19.213c0-6.12-4.975-11.1-11.088-11.1V5.478c7.57 0 13.73 6.162 13.73 13.733h-2.64z" fill="#fff" />
    </symbol>
    <symbol viewBox="0 0 25.000521 25.08" id="icon--file--text">
        <title>file--text</title>
        <path d="M11.977 0c-.298 0-.6.004-.914.013-.16.006-.368.01-.524.02-.315.012-.47.02-.778.044a22.45 22.45 0 0 0-1.743.19C7.01.425 6.21.614 5.37.933c-.602.227-1.146.5-1.636.832l-.163.11a7.29 7.29 0 0 0-.603.495C1.645 3.575.8 6.016.457 7.98c-.395 2.26-.655 6.013-.263 9.12.392 3.11 1.94 5.792 5.19 6.868 1.13.414 2.354.67 3.744.848 1.417.167 2.812.264 4.16.264 2.193 0 4.26-.257 6.08-.887 1.59-.568 2.594-1.275 3.5-2.543.483-.682.894-1.555 1.188-2.462.83-2.6 1.035-5.438.91-8.6-.02-.47-.044-.83-.086-1.285-.07-.76-.175-1.485-.32-2.17-.027-.137-.018-.09-.048-.225-.377-1.63-.93-2.852-1.883-3.885A6.554 6.554 0 0 0 21.267 1.9a8.618 8.618 0 0 0-.348-.208c-.107-.06-.072-.04-.183-.1-.22-.115-.527-.257-.766-.355-.48-.2-.95-.353-1.49-.5-1.367-.363-2.627-.54-4.223-.654A32.56 32.56 0 0 0 11.977 0z"
        fill="#a8abac" />
        <g fill="#fff">
            <path d="M13.215 3.903H6.408v17.274h12.424V9.52l-5.617-5.617zm4.4 16.056h-9.99V5.12h5.44v4.55h4.55v10.29z" />
            <path d="M9.234 11.402h6.835v1.218H9.233zM9.234 14.242h6.835v1.218H9.233zM9.234 17.082h6.835V18.3H9.233z" />
        </g>
    </symbol>
    <symbol viewBox="0 0 25.000515 25.079001" id="icon--github">
        <title>github</title>
        <path d="M24.967 10.59c-.02-.47-.045-.83-.087-1.286-.07-.76-.175-1.485-.32-2.17-.027-.137-.02-.09-.048-.225-.378-1.63-.93-2.853-1.883-3.886A6.503 6.503 0 0 0 21.266 1.9c-.1-.065-.24-.147-.348-.207-.108-.06-.073-.04-.184-.1-.22-.115-.527-.257-.766-.355-.482-.2-.95-.353-1.492-.5C17.112.376 15.852.2 14.256.085a31.927 31.927 0 0 0-3.193-.07c-.16.005-.368.01-.524.018-.315.013-.47.02-.778.045a22.45 22.45 0 0 0-1.743.19C7.01.425 6.21.614 5.37.932c-.602.227-1.146.5-1.636.832l-.163.11c-.19.14-.433.337-.603.495C1.645 3.573.8 6.014.457 7.977c-.395 2.26-.655 6.014-.263 9.122.392 3.11 1.94 5.79 5.19 6.867 1.13.414 2.354.67 3.744.848 1.417.167 2.812.264 4.16.264 2.193 0 4.26-.258 6.08-.888 1.59-.568 2.594-1.275 3.5-2.543.483-.683.894-1.556 1.187-2.463.832-2.6 1.036-5.437.912-8.597z"
        />
        <path d="M14.594 18.813c.432-.042.83-.1 1.19-.174.36-.076.743-.184 1.146-.325.404-.142.764-.31 1.084-.505.32-.196.627-.45.922-.76.295-.31.542-.665.742-1.06.2-.394.357-.868.474-1.42.116-.55.174-1.16.174-1.825 0-1.288-.42-2.385-1.258-3.29.382-.997.34-2.08-.125-3.252l-.312-.037c-.215-.025-.603.066-1.164.274-.56.208-1.19.55-1.888 1.022A11.476 11.476 0 0 0 12.5 7.05a11.21 11.21 0 0 0-3.066.412c-.44-.3-.857-.546-1.252-.742a6.53 6.53 0 0 0-.948-.4 3.257 3.257 0 0 0-.66-.13 2.36 2.36 0 0 0-.393-.013.808.808 0 0 0-.124.025c-.465 1.18-.506 2.264-.125 3.252-.838.905-1.257 2-1.257 3.29 0 .665.058 1.273.175 1.826.116.553.274 1.026.474 1.42.2.395.447.748.742 1.06.295.31.602.564.922.76.32.194.68.363 1.084.504.403.14.785.25 1.147.324.362.074.758.133 1.19.175-.68.465-1.022 1.204-1.022 2.218v2.307c1.386.16 2.704.246 3.903.246.827 0 1.598-.052 2.338-.13v-2.42c.002-1.007-.342-1.747-1.032-2.22z"
        fill="#fff" />
    </symbol>
    <symbol viewBox="0 0 24.919136 24.998" id="icon--google-plus">
        <title>google-plus</title>
        <path d="M11.94 0c-.298 0-.6.004-.912.013-.158.006-.367.01-.522.02-.313.012-.467.02-.775.044-.612.045-1.16.103-1.736.19C6.99.424 6.19.613 5.352.93c-.6.226-1.142.5-1.63.83-.098.065-.067.044-.162.11-.19.14-.432.334-.602.49C1.64 3.563.798 5.997.456 7.953c-.394 2.254-.653 5.994-.262 9.093.39 3.1 1.934 5.77 5.173 6.845 1.126.412 2.347.668 3.732.845 1.41.167 2.802.263 4.146.263 2.185 0 4.244-.256 6.058-.884 1.587-.565 2.587-1.27 3.49-2.535.482-.68.89-1.55 1.184-2.455.828-2.592 1.032-5.42.908-8.57a24.98 24.98 0 0 0-.087-1.282c-.07-.757-.175-1.48-.32-2.163-.027-.137-.018-.09-.048-.224-.376-1.624-.926-2.844-1.876-3.872a6.45 6.45 0 0 0-1.357-1.12 7.04 7.04 0 0 0-.348-.206c-.107-.06-.072-.04-.182-.1a9.87 9.87 0 0 0-.763-.353A11.89 11.89 0 0 0 18.42.738c-1.36-.363-2.618-.54-4.208-.653C13.412.028 12.692 0 11.94 0z"
        />
        <g fill="#fff">
            <path d="M12.982 8.424l-.543.546c-.323.322-.647.644-.967.968-.056.058-.09.07-.158.01-1.146-1.036-3.03-1.02-4.226.154-.788.77-1.135 1.714-1 2.81.19 1.53 1.418 2.732 2.902 2.867.817.074 1.588-.083 2.263-.578a2.51 2.51 0 0 0 .978-1.52c.004-.022.004-.045.008-.078-.053-.003-.1-.01-.15-.01-.88 0-1.762 0-2.645-.002-.147 0-.148 0-.148-.148 0-.643 0-1.285-.003-1.928 0-.096.03-.122.125-.122 1.64.003 3.284.003 4.926 0 .077 0 .12.015.134.1.22 1.37.09 2.69-.575 3.925-.696 1.288-1.784 2.086-3.203 2.41-1.71.394-3.307.113-4.722-.956-1.18-.89-1.898-2.084-2.11-3.55-.265-1.82.258-3.406 1.55-4.72A5.234 5.234 0 0 1 8.577 7.05c1.625-.203 3.07.214 4.31 1.3l.094.074zM16.866 12.904c-.285 0-.57-.002-.854 0-.082.002-.11-.025-.11-.106.003-.387.003-.773 0-1.16-.002-.09.044-.1.117-.1h1.65c.16 0 .16 0 .16-.162 0-.55.002-1.1-.002-1.65 0-.085.024-.116.11-.115.382.005.76.006 1.142 0 .09 0 .12.03.12.12-.005.545-.005 1.09-.005 1.633 0 .21-.003.177.183.177h1.612c.126 0 .13.007.13.136-.003.37-.005.74 0 1.11 0 .096-.03.122-.126.122-.56-.003-1.12 0-1.68-.004-.1 0-.123.03-.122.123.003.55.002 1.1.002 1.65 0 .15 0 .15-.156.15h-1.052c-.154 0-.154 0-.154-.148v-1.623c0-.15 0-.152-.147-.152h-.82z"
            />
        </g>
    </symbol>
    <symbol viewBox="0 0 24.999758 25.079001" id="icon--help">
        <title>help</title>
        <path d="M11.977 0c-.298 0-.6.004-.914.013-.158.006-.368.01-.523.02-.314.012-.47.02-.778.044-.615.045-1.164.104-1.743.19-1.01.158-1.81.348-2.65.666-.602.227-1.146.5-1.636.832l-.163.11a7.46 7.46 0 0 0-.603.495C1.645 3.575.8 6.017.457 7.98.06 10.24-.198 13.99.194 17.1c.393 3.11 1.94 5.79 5.19 6.867 1.13.414 2.354.67 3.744.848 1.417.168 2.812.264 4.16.264 2.193 0 4.258-.258 6.078-.888 1.592-.568 2.596-1.275 3.5-2.543.485-.683.895-1.556 1.19-2.463.83-2.6 1.034-5.438.91-8.6-.02-.47-.045-.83-.087-1.286a18.91 18.91 0 0 0-.32-2.17c-.028-.136-.02-.088-.05-.224-.376-1.63-.928-2.852-1.882-3.885a6.554 6.554 0 0 0-1.36-1.123 8.618 8.618 0 0 0-.35-.207c-.106-.06-.07-.04-.182-.1a9.945 9.945 0 0 0-.766-.354c-.482-.2-.95-.353-1.492-.5-1.365-.363-2.626-.54-4.222-.654-.8-.055-1.524-.082-2.28-.082z"
        />
        <path style="-inkscape-font-specification:&apos;sans-serif Bold&apos;" d="M13.617 15.457h-3.525v-.48q0-.8.322-1.415.322-.625 1.357-1.582l.626-.566q.557-.508.81-.957.265-.45.265-.9 0-.682-.468-1.063-.47-.39-1.31-.39-.79 0-1.708.33-.918.323-1.914.968V6.336q1.182-.41 2.158-.606.977-.195 1.885-.195 2.383 0 3.633.976 1.25.968 1.25 2.833 0 .957-.38 1.72-.382.75-1.3 1.62l-.625.557q-.663.605-.868.976-.205.362-.205.8v.44zm-3.525 1.445h3.525v3.477h-3.525V16.9z"
        font-weight="700" font-size="20" font-family="sans-serif" letter-spacing="0" word-spacing="0" text-anchor="middle" fill="#fff" />
    </symbol>
    <symbol viewBox="0 0 97 75" id="icon--icon--default">
        <title>icon--default</title>
        <path d="M10.786 34.365c-2.54-.92-4.028-1.486-4.028-3.064 0-1.444 1.14-2.274 3.635-2.274 2.54 0 5.078.83 6.48 1.486v-5.777c-1.532-.568-3.984-1.227-7.005-1.227-5.69 0-9.85 2.54-9.85 8.057 0 4.555 2.583 6.655 5.34 7.838 4.203 1.836 6.085 1.88 6.085 3.98 0 1.578-1.27 2.54-4.158 2.54-2.714 0-5.21-.962-7.224-1.927v5.91c2.19.965 4.904 1.576 8.45 1.576 5.69 0 10.07-2.846 10.07-8.406 0-5.602-3.635-7.22-7.794-8.71zM96.908 31.664a73.122 73.122 0 0 0-.258-3.842c-.21-2.268-.52-4.434-.957-6.484-.088-.41-.06-.27-.148-.68-1.123-4.865-2.777-8.523-5.63-11.615a19.762 19.762 0 0 0-4.065-3.357c-.307-.19-.725-.44-1.047-.62-.323-.178-.213-.12-.543-.293-.656-.346-1.57-.77-2.293-1.066a35.203 35.203 0 0 0-4.46-1.488C73.428 1.122 69.658.593 64.89.255A93.772 93.772 0 0 0 55.35.04c-.473.015-1.098.034-1.57.056a62.57 62.57 0 0 0-2.32.137c-1.842.133-3.48.31-5.208.572-3.02.465-5.41 1.037-7.928 1.984-1.795.68-3.423 1.497-4.89 2.49-.294.198-.196.13-.484.335-.574.412-1.293 1-1.805 1.473-3.956 3.598-6.228 9.717-7.504 16.77h6.22V51.134h-7.005c1.553 10.307 5.798 17.316 15.512 20.53 3.38 1.233 7.042 2.007 11.196 2.534 11.12 1.312 21.82 1.186 30.61-1.86 4.76-1.698 7.76-3.81 10.464-7.606 1.445-2.035 2.676-4.646 3.55-7.357 2.483-7.775 3.096-16.258 2.72-25.71zM59.62 41.932c-1.354 4.98-5.267 9.2-13.253 9.2H36.56V23.905h9.937c10.027 0 13.705 6.564 13.705 13.615 0 1.478-.188 2.974-.58 4.412zm29.698-9.604v18.827h-7.312l-2.518-4.05-.7-1.122-2.51-4.04-2.767-4.447c-.735-1.164-1.597-2.59-2.18-3.758-.077-.146-.163-.307-.226-.445.002.1.008.207.012.305.045 1.166.117 2.51.117 3.68v13.878h-6.04V23.878H72.413l1.822 2.92c2.096 3.18 4.1 6.374 5.928 9.503l.744 1.196c.41.68.84 1.432 1.24 2.168.45.834.866 1.646 1.167 2.297-.086-1.226-.043-3.106-.043-4.246V23.878h6.041v8.45z"
        />
        <path d="M45.97 29.417H43.39V45.53h2.32c3.803 0 5.743-1.4 6.653-3.6.517-1.245.704-2.75.704-4.412 0-4.64-1.357-8.1-7.093-8.1z" />
    </symbol>
    <symbol viewBox="0 0 24.918692 24.999001" id="icon--linkedin">
        <title>linkedin</title>
        <path d="M11.948 0c-.3 0-.604.004-.92.013-.157.005-.367.01-.522.018-.313.015-.467.022-.775.047-.612.045-1.16.103-1.735.19C6.99.423 6.19.613 5.352.93a7.88 7.88 0 0 0-1.632.828c-.098.066-.065.045-.16.11-.192.14-.433.335-.602.492C1.638 3.56.798 5.995.455 7.952c-.394 2.254-.652 5.993-.262 9.093.39 3.098 1.933 5.77 5.172 6.844 1.128.41 2.348.668 3.734.844 1.41.167 2.804.265 4.148.265 2.184 0 4.242-.257 6.055-.886 1.586-.565 2.587-1.27 3.49-2.534.482-.68.89-1.55 1.184-2.453.828-2.592 1.032-5.422.908-8.57-.02-.47-.045-.828-.087-1.283-.07-.756-.174-1.48-.318-2.162l-.05-.225c-.375-1.625-.925-2.843-1.877-3.872a6.43 6.43 0 0 0-1.357-1.12 9.62 9.62 0 0 0-.347-.206c-.107-.06-.07-.042-.182-.1-.22-.115-.524-.255-.763-.354-.48-.198-.947-.35-1.486-.497C17.056.375 15.8.2 14.21.085A29.82 29.82 0 0 0 11.948 0z"
        />
        <g fill="#fff">
            <path d="M5.935 8.955h2.79v9h-2.79v-9zm1.44-4.5c.9 0 1.62.72 1.62 1.62 0 .9-.72 1.62-1.62 1.62-.9 0-1.62-.72-1.62-1.62 0-.81.72-1.62 1.62-1.62M10.524 8.955h2.7v1.26c.36-.72 1.26-1.44 2.61-1.44 2.79 0 3.33 1.89 3.33 4.32v4.95h-2.79v-4.41c0-1.08 0-2.43-1.44-2.43s-1.71 1.17-1.71 2.34v4.41h-2.79v-9h.09z"
            />
        </g>
    </symbol>
    <symbol viewBox="0 0 24 28.846001" id="icon--lock--green">
        <title>lock--green</title>
        <path d="M21 9.988H18.36V6.435A6.443 6.443 0 0 0 11.923 0a6.443 6.443 0 0 0-6.435 6.435v3.553H3a3 3 0 0 0-3 3v15.858h24V12.988c0-1.657-1.342-3-3-3zM8.49 6.436A3.44 3.44 0 0 1 11.923 3a3.44 3.44 0 0 1 3.435 3.436V9.99H8.49V6.435z"
        fill="#5fb755" />
    </symbol>
    <symbol viewBox="0 0 24 28.846001" id="icon--lock">
        <title>lock</title>
        <path d="M21 9.988H18.36V6.435A6.443 6.443 0 0 0 11.923 0a6.443 6.443 0 0 0-6.435 6.435v3.553H3a3 3 0 0 0-3 3v15.858h24V12.988c0-1.657-1.342-3-3-3zM8.49 6.436A3.44 3.44 0 0 1 11.923 3a3.44 3.44 0 0 1 3.435 3.436V9.99H8.49V6.435z" />
    </symbol>
    <symbol viewBox="0 0 48 48" id="icon--menu">
        <title>menu</title>
        <path d="M9.1 37.15v-5.262h29.8v5.262H9.1zm0-10.518V21.37h29.8v5.262H9.1zm0-10.52v-5.263h29.8v5.26H9.1z" />
    </symbol>
    <symbol viewBox="0 0 24.000616 24.081134" id="icon--ok">
        <title>ok</title>
        <path d="M12.75 24.08c-1.213 0-2.522-.083-3.935-.25-1.42-.182-2.555-.438-3.572-.81-3.636-1.204-4.76-4.298-5.06-6.68C-.18 13.447.046 9.93.43 7.724c.323-1.84 1.135-4.23 2.45-5.425.16-.15.394-.342.59-.484l.16-.11a7.56 7.56 0 0 1 1.6-.81C6 .603 6.76.412 7.77.255A20.81 20.81 0 0 1 9.422.074c.292-.022.438-.03.736-.043.102-.005.234-.01.355-.013l.136-.004c1.027-.03 1.957-.01 3.013.067 1.624.115 2.784.297 4.003.623.544.146.986.294 1.433.48.232.096.53.23.74.344l.13.07c.152.085.29.166.39.23.508.314.947.677 1.338 1.103.89.96 1.456 2.127 1.837 3.777l.047.216c.132.623.234 1.317.304 2.062a25 25 0 0 1 .083 1.217v.002c.13 3.296-.146 5.883-.867 8.14-.3.923-.7 1.75-1.154 2.39-.865 1.212-1.858 1.935-3.428 2.495-1.636.57-3.543.85-5.77.85z"
        />
        <g fill="#fff">
            <path d="M4.007 12.405c0-2.112 1.217-4.065 3.81-4.065 2.577 0 3.778 1.776 3.778 4.065 0 2.097-1.217 4.05-3.794 4.05-2.576 0-3.793-1.776-3.793-4.05zm5.378 0c0-1.424-.4-2.48-1.585-2.48-1.184 0-1.568 1.057-1.568 2.48 0 1.425.384 2.45 1.584 2.45 1.185 0 1.57-1.025 1.57-2.45zM17.065 15.207l-1.84-2.53v3.65h-2.146V5.442h2.144v6.34l2.4-3.314H19.9l-2.673 3.554 1.777 2.353c.24.32.432.433.752.433.08 0 .112 0 .24-.017v1.522a3.35 3.35 0 0 1-.736.11c-.897 0-1.49-.255-2.193-1.215z"
            />
        </g>
    </symbol>
    <symbol viewBox="0 0 35 35" id="icon--placeholder">
        <title>placeholder</title>
        <path d="M18.533 35c-1.765 0-3.667-.12-5.72-.364-2.067-.264-3.715-.637-5.193-1.176C2.335 31.71.702 27.213.266 23.75c-.528-4.203-.2-9.317.36-12.522.468-2.672 1.648-6.148 3.558-7.885.235-.22.574-.496.86-.703l.23-.16c.692-.467 1.45-.853 2.324-1.18C8.72.875 9.824.597 11.292.37c.774-.117 1.514-.198 2.4-.263.425-.033.638-.044 1.07-.063.15-.008.34-.013.517-.02l.197-.005a41.82 41.82 0 0 1 4.38.097c2.36.168 4.046.43 5.82.905.79.213 1.432.428 2.082.697.338.14.77.337 1.078.5l.186.1c.223.126.424.244.57.336.736.46 1.374.985 1.942 1.606 1.292 1.397 2.116 3.09 2.67 5.49l.07.314c.192.906.34 1.914.44 2.998.06.628.092 1.12.12 1.77h.002c.19 4.792-.21 8.552-1.258 11.834-.438 1.34-1.018 2.54-1.678 3.47-1.256 1.763-2.7 2.814-4.982 3.628C24.543 34.59 21.77 35 18.533 35zM16.753.974c-.406 0-.817.006-1.246.018l-.2.007c-.168.005-.352.01-.5.018-.423.018-.628.028-1.04.06-.864.064-1.58.143-2.328.256-1.397.217-2.444.48-3.5.877-.8.3-1.493.653-2.12 1.076l-.213.148a9.39 9.39 0 0 0-.765.628C3.11 5.634 2.022 8.88 1.584 11.395c-.547 3.133-.87 8.13-.354 12.232.402 3.186 1.892 7.32 6.71 8.915 1.42.518 3.002.875 4.99 1.13 5.667.67 10.143.4 13.667-.822 2.102-.75 3.368-1.667 4.512-3.272.604-.853 1.14-1.96 1.545-3.207 1.012-3.166 1.397-6.82 1.21-11.494-.027-.63-.06-1.11-.116-1.72a25.412 25.412 0 0 0-.425-2.886l-.066-.3c-.514-2.222-1.266-3.78-2.438-5.047a8.245 8.245 0 0 0-1.748-1.443 9.114 9.114 0 0 0-.453-.268l-.22-.122c-.3-.16-.7-.34-1.013-.47a15.636 15.636 0 0 0-1.962-.657c-1.71-.457-3.342-.71-5.636-.874a40.683 40.683 0 0 0-3.037-.117z"
        />
    </symbol>
    <symbol viewBox="0 0 23.999277 24.081135" id="icon--power">
        <title>power</title>
        <path d="M12.75 24.08c-1.213 0-2.522-.083-3.935-.25-1.42-.182-2.555-.438-3.572-.81-3.636-1.204-4.76-4.298-5.06-6.68C-.18 13.447.046 9.93.43 7.724c.323-1.84 1.135-4.23 2.45-5.425.16-.15.394-.342.59-.484l.16-.11c.476-.32.998-.586 1.598-.81C6 .603 6.76.412 7.77.255A20.81 20.81 0 0 1 9.422.074c.292-.022.438-.03.736-.043.102-.005.234-.01.355-.013l.136-.004A28.75 28.75 0 0 1 13.66.08c1.624.115 2.784.297 4.003.623.544.146.986.294 1.433.48.233.096.53.23.742.344l.128.07c.153.085.292.166.39.23.508.314.947.677 1.338 1.103.89.96 1.456 2.127 1.838 3.777l.047.216c.133.623.235 1.317.304 2.062a25 25 0 0 1 .083 1.217v.002c.13 3.296-.144 5.883-.865 8.14-.3.923-.7 1.75-1.154 2.39-.864 1.212-1.857 1.935-3.428 2.495-1.634.57-3.54.85-5.77.85z"
        />
        <path fill="#fff" d="M6.288 21.485l10.98-12.372-3.887.057 4.332-6.574h-4.808L8.144 11.8h3.142z" />
    </symbol>
    <symbol viewBox="0 0 24.00062 24.081135" id="icon--print">
        <title>print</title>
        <path d="M12.75 24.08c-1.214 0-2.523-.083-3.936-.25-1.42-.182-2.555-.438-3.572-.81-3.636-1.204-4.76-4.298-5.06-6.68-.362-2.893-.136-6.41.25-8.615.32-1.84 1.133-4.23 2.447-5.425.16-.15.394-.342.59-.484l.16-.11a7.56 7.56 0 0 1 1.6-.81C6 .603 6.76.412 7.77.255A20.81 20.81 0 0 1 9.422.074c.292-.022.438-.03.736-.043.102-.005.234-.01.355-.013l.136-.004a28.77 28.77 0 0 1 3.013.067c1.624.115 2.783.297 4.003.623.544.146.986.294 1.433.48.232.097.53.232.74.345l.13.07c.152.085.29.166.39.23.508.314.947.677 1.337 1.103.89.962 1.456 2.128 1.838 3.778l.047.216c.132.623.234 1.317.304 2.062.04.433.062.77.083 1.217v.002c.13 3.296-.146 5.883-.866 8.14-.302.923-.7 1.75-1.155 2.39-.865 1.212-1.858 1.935-3.43 2.495-1.636.568-3.543.85-5.77.85z"
        />
        <g fill="#fff">
            <path d="M7.85 4.782h8.296v2.074H7.85V4.782zM19.257 7.893H4.74A1.04 1.04 0 0 0 3.705 8.93v5.184c0 .57.467 1.037 1.037 1.037h3.11V19.3h8.296V15.15h3.11a1.04 1.04 0 0 0 1.038-1.036V8.93a1.04 1.04 0 0 0-1.037-1.037zm-13.48 3.11a1.037 1.037 0 1 1 0-2.073 1.037 1.037 0 0 1 0 2.073zm9.333 7.258H8.89v-5.184h6.22v5.185z"
            />
        </g>
    </symbol>
    <symbol viewBox="0 0 32 32" id="icon--printer">
        <title>printer</title>
        <path d="M8 2h16v4H8V2zM30 8H2c-1.1 0-2 .9-2 2v10c0 1.1.9 2 2 2h6v8h16v-8h6c1.1 0 2-.9 2-2V10c0-1.1-.9-2-2-2zM4 14a2 2 0 1 1 0-4 2 2 0 0 1 0 4zm18 14H10V18h12v10z" />
    </symbol>
    <symbol id="icon--rss">
        <title>rss</title>
        <path d="M0 866q0-55 39-94t94-39 94 39 39 94q0 56-39 94.5T133 999t-94-39-39-94zm0-335V340q179 0 331 88.5T571.5 669t88.5 331H468q0-194-137-331Q193 531 0 531zm0-339V0q203 0 388 79.5T707 293t213.5 319 79.5 388H808q0-164-64-314T571.5 428t-258-172T0 192z"
        />
    </symbol>
    <symbol viewBox="0 0 22.499999 22.098999" id="icon--search--simple">
        <title>search--simple</title>
        <path d="M24.52 6.8l-4.3-4.3c.51-.948.802-1.97.802-3.062 0-1.75-.656-3.353-1.896-4.52-1.24-1.24-2.843-1.896-4.52-1.896-1.75 0-3.353.656-4.52 1.896-1.24 1.24-1.896 2.844-1.896 4.52 0 1.75.656 3.354 1.896 4.52 1.24 1.24 2.843 1.897 4.52 1.897 1.24 0 2.406-.365 3.426-1.02l4.23 4.227 2.26-2.26zM11.327 2.72A4.673 4.673 0 0 1 9.948-.563c0-1.246.46-2.427 1.378-3.28a4.67 4.67 0 0 1 3.28-1.378c1.246 0 2.428.46 3.28 1.378a4.673 4.673 0 0 1 1.38 3.28c0 1.247-.46 2.428-1.38 3.28a4.67 4.67 0 0 1-3.28 1.378c-1.247 0-2.36-.46-3.28-1.377z"
        fill="#fff" />
        <path d="M22.5 18.985l-5.926-5.926c.703-1.307 1.105-2.713 1.105-4.22 0-2.41-.905-4.62-2.612-6.228C13.36.904 11.15 0 8.84 0 6.43 0 4.22.904 2.612 2.612.904 4.32 0 6.53 0 8.84c0 2.41.904 4.62 2.612 6.228 1.708 1.708 3.917 2.61 6.228 2.61a8.67 8.67 0 0 0 4.72-1.405l5.827 5.826 3.113-3.115zM4.32 13.36c-1.176-1.175-1.9-2.802-1.9-4.52 0-1.718.634-3.345 1.9-4.52 1.174-1.176 2.802-1.9 4.52-1.9 1.717 0 3.344.634 4.52 1.9 1.174 1.175 1.897 2.802 1.897 4.52 0 1.718-.633 3.345-1.898 4.52-1.176 1.176-2.803 1.898-4.52 1.898-1.718 0-3.255-.633-4.52-1.898z"
        />
    </symbol>
    <symbol viewBox="0 0 23.999619 24.081125" id="icon--search">
        <title>search</title>
        <path d="M12.75 24.08c-1.213 0-2.522-.083-3.935-.25-1.42-.182-2.555-.438-3.572-.81-3.636-1.204-4.76-4.298-5.06-6.68C-.18 13.447.046 9.93.43 7.724c.323-1.84 1.135-4.23 2.45-5.425.16-.15.394-.342.59-.484l.16-.11c.475-.32.998-.586 1.598-.81C6 .603 6.758.412 7.77.255 8.302.176 8.812.12 9.42.074c.293-.022.44-.03.737-.043.102-.005.234-.01.355-.013l.136-.004a28.77 28.77 0 0 1 3.014.067c1.624.115 2.784.297 4.003.623.544.146.986.294 1.433.48.233.096.53.23.742.344l.128.07c.153.085.292.166.392.23.507.314.946.677 1.337 1.103.89.96 1.456 2.127 1.837 3.777l.047.216c.133.623.235 1.316.305 2.062.04.433.062.77.083 1.218.13 3.297-.145 5.884-.865 8.142-.3.922-.7 1.748-1.155 2.39-.864 1.21-1.857 1.934-3.427 2.494-1.634.57-3.54.85-5.77.85z"
        />
        <path d="M20.165 17.8l-4.3-4.3c.51-.95.8-1.97.8-3.063 0-1.75-.655-3.353-1.895-4.52-1.24-1.24-2.843-1.896-4.52-1.896-1.75 0-3.353.657-4.52 1.897-1.24 1.24-1.896 2.844-1.896 4.52 0 1.75.656 3.354 1.896 4.52 1.24 1.24 2.843 1.897 4.52 1.897 1.24 0 2.406-.365 3.426-1.02l4.23 4.227 2.26-2.26zM6.97 13.718a4.673 4.673 0 0 1-1.378-3.28c0-1.247.46-2.428 1.378-3.28a4.67 4.67 0 0 1 3.28-1.38c1.246 0 2.428.46 3.28 1.38a4.673 4.673 0 0 1 1.38 3.28c0 1.246-.46 2.427-1.38 3.28a4.67 4.67 0 0 1-3.28 1.377c-1.247 0-2.36-.46-3.28-1.377z"
        fill="#fff" />
    </symbol>
    <symbol viewBox="0 0 97 75" id="icon--sidn-logo--black">
        <title>sidn-logo--black</title>
        <path d="M10.786 34.365c-2.54-.92-4.028-1.486-4.028-3.064 0-1.444 1.14-2.274 3.635-2.274 2.54 0 5.078.83 6.48 1.486v-5.777c-1.532-.568-3.984-1.227-7.005-1.227-5.69 0-9.85 2.54-9.85 8.057 0 4.555 2.583 6.655 5.34 7.838 4.203 1.836 6.085 1.88 6.085 3.98 0 1.578-1.27 2.54-4.158 2.54-2.714 0-5.21-.962-7.224-1.927v5.91c2.19.965 4.904 1.576 8.45 1.576 5.69 0 10.07-2.846 10.07-8.406 0-5.602-3.635-7.22-7.794-8.71zM96.908 31.664a73.122 73.122 0 0 0-.258-3.842c-.21-2.268-.52-4.434-.957-6.484-.088-.41-.06-.27-.148-.68-1.123-4.865-2.777-8.523-5.63-11.615a19.762 19.762 0 0 0-4.065-3.357c-.307-.19-.725-.44-1.047-.62-.323-.178-.213-.12-.543-.293-.656-.346-1.57-.77-2.293-1.066a35.203 35.203 0 0 0-4.46-1.488C73.428 1.122 69.658.593 64.89.255A93.772 93.772 0 0 0 55.35.04c-.473.015-1.098.034-1.57.056a62.57 62.57 0 0 0-2.32.137c-1.842.133-3.48.31-5.208.572-3.02.465-5.41 1.037-7.928 1.984-1.795.68-3.423 1.497-4.89 2.49-.294.198-.196.13-.484.335-.574.412-1.293 1-1.805 1.473-3.956 3.598-6.228 9.717-7.504 16.77h6.22V51.134h-7.005c1.553 10.307 5.798 17.316 15.512 20.53 3.38 1.233 7.042 2.007 11.196 2.534 11.12 1.312 21.82 1.186 30.61-1.86 4.76-1.698 7.76-3.81 10.464-7.606 1.445-2.035 2.676-4.646 3.55-7.357 2.483-7.775 3.096-16.258 2.72-25.71zM59.62 41.932c-1.354 4.98-5.267 9.2-13.253 9.2H36.56V23.905h9.937c10.027 0 13.705 6.564 13.705 13.615 0 1.478-.188 2.974-.58 4.412zm29.698-9.604v18.827h-7.312l-2.518-4.05-.7-1.122-2.51-4.04-2.767-4.447c-.735-1.164-1.597-2.59-2.18-3.758-.077-.146-.163-.307-.226-.445.002.1.008.207.012.305.045 1.166.117 2.51.117 3.68v13.878h-6.04V23.878H72.413l1.822 2.92c2.096 3.18 4.1 6.374 5.928 9.503l.744 1.196c.41.68.84 1.432 1.24 2.168.45.834.866 1.646 1.167 2.297-.086-1.226-.043-3.106-.043-4.246V23.878h6.041v8.45z"
        />
        <path d="M45.97 29.417H43.39V45.53h2.32c3.803 0 5.743-1.4 6.653-3.6.517-1.245.704-2.75.704-4.412 0-4.64-1.357-8.1-7.093-8.1z" />
    </symbol>
    <symbol viewBox="0 0 74.035946 56.691581" id="icon--sidn-logo--fc-fill">
        <title>sidn-logo--fc-fill</title>
        <path d="M63.684 31.722C60.33 20.84 53.62 7.65 49.75.192c3.605.255 6.45.655 9.54 1.482.036 7.375 3.83 20.007 4.394 30.048z" fill="#02bbb9" />
        <path d="M.033 37.73v-4.47c1.523.73 3.41 1.457 5.462 1.457 2.185 0 3.145-.728 3.145-1.92 0-1.588-1.423-1.62-4.602-3.012C1.953 28.89 0 27.303 0 23.86c0-4.17 3.145-6.09 7.448-6.09 2.284 0 4.137.497 5.296.926v4.37c-1.06-.497-2.98-1.126-4.9-1.126-1.885 0-2.745.63-2.745 1.722 0 1.192 1.124 1.622 3.043 2.317 3.145 1.125 5.892 2.35 5.892 6.586 0 4.204-3.31 6.355-7.613 6.355-2.682.002-4.734-.462-6.39-1.19zM49.98 31.698v-9.24C41.163 16.71 31.667 10.704 24.238 5.357c-2.992 2.72-5.166 7.346-6.132 12.697h5.16v13.66c1.484 0 3.196-.003 5.066-.005V18.052h7.515c7.58 0 10.36 4.966 10.36 10.295a12.86 12.86 0 0 1-.44 3.352c1.416-.002 2.825-.002 4.213-.002z"
        fill="#1268b3" />
        <path d="M58.36 31.708l-3.812-.006v6.97H49.98V31.7h-4.213c-1.025 3.766-3.982 6.975-10.02 6.975h-7.415v-6.965l-5.065.006v6.96h-5.16c1.172 7.774 4.247 13.073 11.592 15.504 9.56-6.812 21.482-12.01 30.56-19.415l-1.9-3.055z" fill="#f15d2c" />
        <path d="M60.258 34.763c-9.076 7.406-21 12.603-30.56 19.415 2.557.935 5.323 1.518 8.463 1.916 7.055-6.35 15.965-12.362 22.627-20.48l-.53-.85z" fill="#e78040" />
        <path d="M63.124 38.673h-.432l-1.904-3.06c-6.662 8.118-15.572 14.13-22.626 20.48 8.408.993 16.5.896 23.144-1.405-.63-5.27.932-10.183 1.818-16.015z" fill="#682c91" />
        <path d="M65.927 38.673h-2.804c-.886 5.832-2.448 10.746-1.818 16.016 3.598-1.285 5.867-2.884 7.912-5.75-1.992-3.92-2.525-6.986-3.29-10.267z" fill="#26abce" />
        <path d="M68.22 37.85v.822h-2.293c.765 3.28 1.298 6.348 3.29 10.266 1.092-1.54 2.02-3.516 2.686-5.565-1.713-2.267-2.71-3.935-3.684-5.522z" fill="#fff" />
        <path d="M73.96 23.937C71.497 25.105 70.125 27.2 68.22 29v8.85c.975 1.588 1.97 3.256 3.684 5.522 1.874-5.875 2.338-12.288 2.056-19.435z" fill="#18984a" />
        <path d="M73.764 21.033c-2.428 1.756-3.768 4.366-5.545 6.71V29c1.904-1.8 3.276-3.895 5.74-5.063a54.277 54.277 0 0 0-.196-2.904z" fill="#fff" />
        <path d="M73.04 16.13c-2.21 2.475-3.43 5.66-4.82 8.713v2.9c1.777-2.344 3.117-4.954 5.545-6.71a42.835 42.835 0 0 0-.725-4.904z" fill="#f15d2c" />
        <path d="M68.22 24.844c1.39-3.053 2.608-6.24 4.82-8.714-.067-.31-.044-.206-.114-.513-.848-3.68-2.098-6.447-4.254-8.783-1.505 3.202-2.124 7.15-2.615 11.218h2.162v6.792z" fill="#002d6a" />
        <path d="M66.057 18.052c.49-4.067 1.11-8.016 2.615-11.218a14.868 14.868 0 0 0-3.076-2.538C64.4 8.07 64.332 12.983 64.333 18.05h1.724z" fill="#48ba7f" />
        <path d="M63.96 18.052c-.14-5.263-.228-10.357.846-14.224-.243-.135-.158-.09-.408-.222-1.008 3.91-.836 9.09-.62 14.446h.183z" fill="#002d6a" />
        <path d="M63.65 18.052h.126c-.215-5.355-.387-10.537.62-14.446-.497-.26-1.188-.583-1.733-.806-1.008 5.91.58 14.9.988 23.103v-7.85z" fill="#48ba7f" />
        <path d="M63.65 28.51v-2.607C63.244 17.7 61.656 8.71 62.664 2.8a26.8 26.8 0 0 0-3.37-1.127c.033 7.376 3.828 20.007 4.392 30.048-.066-.924-.034-2.348-.034-3.21z" fill="#1268b3" />
        <path d="M63.684 31.722C60.33 20.84 53.62 7.65 49.75.192a70.886 70.886 0 0 0-7.21-.164c6.34 7.342 14.795 19.42 20.26 29.958.343.63.656 1.243.884 1.736z" fill="#e78040" />
        <path d="M42.54.028c-.36.01-.832.026-1.188.042 4.264 4.67 9.353 11.18 13.988 17.982h.102l1.377 2.207 4.47 7.166a.1.1 0 0 1 .01.017l.564.903c.31.512.636 1.082.937 1.64C57.337 19.448 48.883 7.37 42.54.027z" fill="#682c91" />
        <path d="M55.34 18.052C50.706 11.25 45.617 4.74 41.354.07c-.71.03-1.06.05-1.756.102 4.62 4.71 10.05 11.16 15.008 17.88h.736z" fill="#26abce" />
        <path d="M54.604 18.052c-4.96-6.722-10.39-13.17-15.008-17.88-1.394.1-2.63.234-3.938.435 5.31 4.778 11.44 11.005 17.098 17.445h1.848z" fill="#18984a" />
        <path d="M49.98 18.052h2.776C47.096 11.612 40.97 5.385 35.658.607c-2.28.35-4.09.783-5.993 1.5 6.207 4.926 13.483 10.83 20.315 16.79v-.845z" fill="#fff" />
        <path d="M49.98 18.897c-6.832-5.96-14.108-11.864-20.315-16.79-1.356.51-2.586 1.13-3.697 1.88 7.1 5.295 15.86 11.37 24.012 17.293v-2.383z" fill="#f15d2c" />
        <path d="M49.98 21.282c-8.152-5.924-16.912-12-24.012-17.293-.222.15-.148.1-.364.253 7.174 5.314 16.086 11.384 24.376 17.28v-.24z" fill="#002d6a" />
        <path d="M64.334 18.052c0-5.068.067-9.982 1.263-13.755a16.97 16.97 0 0 0-.79-.468c-1.075 3.865-.985 8.96-.846 14.223h.374z" fill="#fff" />
        <path d="M58.36 31.708l-2.09-3.362c-.56-.88-1.207-1.958-1.65-2.84-.055-.112-.12-.233-.17-.338.003.074.004.155.01.23.034.88.088 1.9.088 2.782v3.522l3.812.006z" fill="#1268b3" />
        <path d="M49.98 21.524c-8.29-5.897-17.202-11.967-24.376-17.28-.434.31-.98.755-1.366 1.112C31.666 10.703 41.162 16.71 49.98 22.46v-.936z" fill="#48ba7f" />
        <g>
            <path d="M40.28 31.698l-6.785.005v2.733h1.755c2.875 0 4.34-1.072 5.03-2.738z" fill="#f15d2c" />
        </g>
        <g>
            <path d="M35.448 22.223h-1.953v9.48c2.174 0 4.46-.003 6.784-.005.39-.942.532-2.096.532-3.352 0-3.508-1.028-6.123-5.364-6.123z" fill="#1268b3" />
        </g>
        <path d="M49.98 21.28V18.053H55.443l1.372 2.2 4.477 7.176.01.016.562.903c.31.513.636 1.083.937 1.64.344.63.656 1.244.885 1.736-.065-.927-.033-2.35-.033-3.21V18.055h4.567V38.674H62.694l-1.904-3.06-.53-.85-1.898-3.056-2.09-3.363c-.56-.88-1.206-1.958-1.65-2.84-.055-.11-.12-.232-.17-.337.003.074.004.155.01.23.034.88.088 1.9.088 2.782V38.674h-4.567V21.282z"
        fill="#fff" />
        <g>
            <path fill="#fff" d="M18.106 18.053h5.16v20.62h-5.16z" />
        </g>
        <path d="M35.846 18.052H28.33V38.673h7.416c6.037 0 8.994-3.21 10.02-6.975.297-1.086.44-2.234.44-3.352 0-5.328-2.78-10.294-10.36-10.294zm4.433 13.646c-.69 1.666-2.155 2.738-5.03 2.738h-1.755V22.223h1.953c4.335 0 5.364 2.616 5.364 6.124 0 1.255-.143 2.41-.533 3.35z"
        fill="#fff" />
    </symbol>
    <symbol viewBox="0 0 97 75" id="icon--sidn-logo--fc">
        <title>sidn-logo--fc</title>
        <path fill="#02BBB9" d="M83.318 41.96C78.884 27.565 70.008 10.12 64.888.254c4.77.336 8.537.867 12.62 1.962.045 9.753 5.064 26.462 5.81 39.742z" />
        <path fill="#1268B3" d="M.06 49.906v-5.91c2.014.965 4.51 1.926 7.224 1.926 2.888 0 4.158-.96 4.158-2.54 0-2.1-1.882-2.144-6.086-3.98C2.6 38.22.016 36.12.016 31.567c0-5.517 4.16-8.058 9.85-8.058 3.022 0 5.474.658 7.005 1.228v5.777c-1.4-.657-3.938-1.487-6.478-1.487-2.496 0-3.635.83-3.635 2.276 0 1.577 1.49 2.144 4.028 3.064 4.16 1.49 7.793 3.11 7.793 8.71 0 5.56-4.378 8.407-10.068 8.407-3.547 0-6.263-.613-8.45-1.577z"
        />
        <g fill="#1268B3">
            <path d="M71.234 41.936c1.744 0 3.43.004 5.043.006l-2.766-4.445c-.737-1.164-1.598-2.59-2.183-3.758l-.213-.142c.045 1.167.117 2.51.117 3.68v4.66h.004zM65.193 41.93V29.708c-11.664-7.604-24.22-15.546-34.048-22.62-3.956 3.596-6.228 9.715-7.504 16.77h6.22v18.09c1.962 0 4.228-.005 6.7-.007V23.904h9.937c10.026 0 13.704 6.564 13.704 13.615 0 1.48-.187 2.976-.58 4.412h5.573z"
            />
        </g>
        <path fill="#F15D2C" d="M76.277 41.94c-1.613 0-3.3-.005-5.043-.005v9.22h-6.04V41.93H59.62c-1.354 4.98-5.27 9.202-13.254 9.202h-9.808v-9.19l-6.7.008v9.184h-7.004c1.553 10.307 5.798 17.315 15.512 20.53 12.646-9.015 28.416-15.886 40.42-25.68l-2.51-4.043z"
        />
        <path fill="#E78040" d="M78.787 45.982c-12.005 9.795-27.775 16.666-40.42 25.682 3.38 1.232 7.04 2.006 11.193 2.53 9.33-8.397 21.112-16.35 29.926-27.09l-.7-1.122z" />
        <path fill="#682C91" d="M82.578 51.154h-.573l-2.52-4.05c-8.81 10.74-20.595 18.69-29.925 27.09 11.12 1.314 21.82 1.188 30.61-1.857-.83-6.97 1.237-13.468 2.408-21.183z" />
        <path fill="#26ABCE" d="M86.286 51.154h-3.708c-1.17 7.715-3.238 14.214-2.406 21.183 4.76-1.698 7.76-3.812 10.465-7.606-2.633-5.18-3.338-9.237-4.35-13.576z" />
        <path fill="#FFF" d="M89.316 50.068v1.086h-3.03c1.013 4.34 1.718 8.396 4.35 13.576 1.446-2.035 2.677-4.647 3.552-7.358-2.267-3-3.583-5.205-4.872-7.304z" />
        <path fill="#18984A" d="M96.906 31.664c-3.258 1.547-5.07 4.315-7.59 6.697V50.07c1.29 2.1 2.604 4.305 4.87 7.304 2.483-7.772 3.097-16.256 2.72-25.708z" />
        <path fill="#FFF" d="M96.648 27.822c-3.207 2.323-4.98 5.774-7.332 8.88v1.66c2.52-2.383 4.332-5.15 7.59-6.698-.06-1.406-.13-2.48-.258-3.842z" />
        <path fill="#F15D2C" d="M95.693 21.336l-.15-.678c-2.87 3.33-4.455 7.573-6.227 11.668V36.7c2.35-3.103 4.125-6.555 7.332-8.878-.21-2.27-.52-4.435-.955-6.486z" />
        <path fill="#002D6A" d="M89.316 23.878v8.448c1.77-4.095 3.356-8.34 6.228-11.668-1.123-4.866-2.776-8.525-5.628-11.617-1.988 4.237-2.81 9.46-3.46 14.838h2.86z" />
        <path fill="#48BA7F" d="M86.457 23.878c.648-5.378 1.47-10.6 3.46-14.837a19.79 19.79 0 0 0-4.067-3.356c-1.58 4.995-1.672 11.492-1.67 18.195l2.277-.002z" />
        <path fill="#002D6A" d="M83.686 23.878c-.187-6.958-.305-13.7 1.117-18.813-.322-.178-.213-.12-.544-.293-1.33 5.17-1.105 12.024-.82 19.106h.246z" />
        <path fill="#48BA7F" d="M83.273 23.878h.166c-.286-7.082-.513-13.936.817-19.106a28.054 28.054 0 0 0-2.29-1.066c-1.335 7.82.77 19.708 1.31 30.558V23.878h-.004z" />
        <path fill="#1268B3" d="M83.273 37.713v-3.45c-.54-10.85-2.643-22.74-1.308-30.558a35.578 35.578 0 0 0-4.46-1.488c.045 9.753 5.066 26.46 5.813 39.742-.088-1.228-.045-3.106-.045-4.247z" />
        <path fill="#E78040" d="M83.318 41.96C78.884 27.565 70.008 10.12 64.888.254A93.198 93.198 0 0 0 55.35.04c8.39 9.71 19.572 25.686 26.8 39.623.452.835.868 1.646 1.168 2.296z" />
        <path fill="#682C91" d="M72.416 23.878l1.822 2.92c2.096 3.177 4.1 6.372 5.928 9.5l.744 1.196c.41.68.84 1.43 1.24 2.168C74.922 25.726 63.738 9.75 55.35.04c-.473.014-1.1.034-1.57.056 5.64 6.176 12.373 14.787 18.503 23.783l.133-.002z" />
        <path fill="#26ABCE" d="M72.28 23.878C66.15 14.882 59.42 6.27 53.78.095c-.938.04-1.4.068-2.32.136 6.108 6.23 13.29 14.76 19.85 23.648h.97z" />
        <path fill="#18984A" d="M71.31 23.878C64.75 14.988 57.57 6.46 51.46.23c-1.844.134-3.48.31-5.21.573 7.022 6.323 15.13 14.558 22.613 23.075h2.448z" />
        <path fill="#FFF" d="M65.193 23.878h3.67C61.38 15.36 53.27 7.126 46.25.803c-3.018.465-5.41 1.037-7.927 1.985 8.21 6.517 17.832 14.324 26.87 22.208v-1.118z" />
        <path fill="#F15D2C" d="M65.193 24.997c-9.04-7.884-18.66-15.69-26.87-22.208-1.796.677-3.424 1.497-4.892 2.49 9.392 7 20.977 15.036 31.762 22.87v-3.153z" />
        <path fill="#002D6A" d="M65.193 28.15c-10.785-7.834-22.37-15.87-31.76-22.872-.294.2-.196.13-.484.336 9.49 7.03 21.276 15.056 32.243 22.858v-.322z" />
        <path fill="#FFF" d="M84.18 23.878c-.002-6.703.09-13.2 1.67-18.195-.308-.19-.725-.44-1.047-.618-1.422 5.113-1.304 11.855-1.117 18.813h.494z" />
        <g fill="#48BA7F">
            <path d="M71.104 33.292l.013.304c.07.05.142.095.213.14-.077-.145-.162-.305-.226-.444zM65.193 28.473C54.23 20.67 42.44 12.645 32.95 5.615c-.575.412-1.294 1-1.806 1.472 9.827 7.075 22.385 15.017 34.05 22.62v-1.234z" />
        </g>
        <path fill="#F15D2C" d="M52.36 41.93c-3.072 0-6.095.004-8.973.006v3.594h2.32c3.805 0 5.743-1.4 6.654-3.6z" />
        <path fill="#1268B3" d="M45.97 29.417H43.39v12.52c2.878-.003 5.9-.007 8.973-.007.518-1.246.704-2.748.704-4.412 0-4.64-1.357-8.1-7.093-8.1z" />
    </symbol>
    <symbol viewBox="0 0 97 75" id="icon--sidn-logo--greyscale">
        <title>sidn-logo--greyscale</title>
        <path fill="#868789" d="M83.318 41.96C78.884 27.57 70.008 10.12 64.888.258c4.768.336 8.537.867 12.62 1.96.045 9.755 5.066 26.462 5.81 39.744z" />
        <path fill="#1A171B" d="M.06 49.908v-5.91c2.014.965 4.51 1.926 7.224 1.926 2.888 0 4.158-.96 4.158-2.54 0-2.1-1.882-2.144-6.086-3.98C2.6 38.218.016 36.12.016 31.566c0-5.518 4.16-8.06 9.85-8.06 3.022 0 5.474.66 7.005 1.23v5.775c-1.4-.656-3.938-1.486-6.478-1.486-2.496 0-3.635.83-3.635 2.277 0 1.576 1.49 2.143 4.028 3.063 4.16 1.49 7.793 3.11 7.793 8.71 0 5.562-4.378 8.41-10.068 8.41-3.547-.002-6.262-.615-8.45-1.578z"
        />
        <g fill="#1A171B">
            <path d="M71.234 41.938c1.744 0 3.43.004 5.043.006L73.51 37.5c-.735-1.165-1.597-2.593-2.18-3.76-.073-.046-.142-.093-.214-.142.045 1.168.117 2.51.117 3.68v4.66zM65.193 41.932V29.708c-11.662-7.603-24.22-15.544-34.048-22.62-3.956 3.597-6.228 9.716-7.504 16.77h6.22V41.95c1.962 0 4.228-.005 6.7-.007v-18.04h9.937c10.027 0 13.705 6.564 13.705 13.616 0 1.478-.188 2.976-.58 4.41 1.874.002 3.737.002 5.57.002z"
            />
        </g>
        <path fill="#58585A" d="M76.277 41.943c-1.613-.002-3.3-.006-5.043-.006v9.22h-6.04V41.93H59.62c-1.354 4.98-5.267 9.204-13.253 9.204H36.56v-9.19c-2.473 0-4.738.005-6.7.007v9.185h-7.005c1.553 10.307 5.798 17.314 15.512 20.53 12.645-9.015 28.417-15.886 40.42-25.68l-2.51-4.042z"
        />
        <path fill="#B0B2B3" d="M78.787 45.984C66.783 55.78 51.012 62.65 38.367 71.666c3.38 1.232 7.042 2.006 11.196 2.53 9.328-8.397 21.11-16.35 29.926-27.09l-.703-1.122z" />
        <path fill="#1A171B" d="M82.578 51.156h-.572l-2.518-4.05C70.674 57.847 58.89 65.8 49.562 74.197c11.12 1.315 21.82 1.187 30.61-1.858-.832-6.97 1.236-13.467 2.406-21.182z" />
        <path fill="#C5C6C8" d="M86.287 51.156h-3.71c-1.17 7.715-3.237 14.213-2.405 21.182 4.76-1.697 7.76-3.812 10.465-7.605-2.633-5.18-3.338-9.24-4.35-13.577z" />
        <path fill="#FFF" d="M89.318 50.07v1.086h-3.03c1.01 4.338 1.716 8.396 4.35 13.576 1.444-2.035 2.675-4.648 3.55-7.36-2.266-2.997-3.58-5.204-4.87-7.302z" />
        <path fill="#58585A" d="M96.908 31.666c-3.258 1.547-5.07 4.315-7.59 6.698V50.07c1.29 2.098 2.604 4.305 4.87 7.303 2.482-7.77 3.095-16.256 2.72-25.707z" />
        <path fill="#FFF" d="M96.65 27.824c-3.21 2.322-4.982 5.773-7.332 8.88v1.66c2.52-2.384 4.332-5.152 7.59-6.7a72.794 72.794 0 0 0-.258-3.84z" />
        <path fill="#58585A" d="M95.693 21.337c-.088-.41-.06-.27-.148-.678-2.87 3.327-4.457 7.57-6.227 11.667v4.375c2.35-3.106 4.123-6.557 7.332-8.88-.21-2.268-.52-4.434-.957-6.485z" />
        <path fill="#1A171B" d="M89.318 23.88v8.447c1.77-4.096 3.355-8.34 6.227-11.668-1.123-4.868-2.777-8.526-5.63-11.618-1.987 4.236-2.808 9.46-3.458 14.838h2.86z" />
        <path fill="#B0B2B3" d="M86.457 23.88c.65-5.38 1.47-10.602 3.46-14.838a19.762 19.762 0 0 0-4.067-3.357c-1.58 4.994-1.672 11.492-1.67 18.195h2.277z" />
        <path fill="#1A171B" d="M83.686 23.88c-.186-6.96-.305-13.7 1.117-18.814-.323-.178-.213-.12-.543-.293-1.33 5.172-1.105 12.025-.82 19.107h.246z" />
        <path fill="#B0B2B3" d="M83.275 23.88h.164c-.286-7.082-.51-13.936.82-19.107-.657-.346-1.57-.77-2.294-1.066-1.334 7.82.77 19.71 1.31 30.56V23.88z" />
        <path fill="#1A171B" d="M83.275 37.715v-3.45c-.54-10.85-2.643-22.738-1.31-30.558a35.524 35.524 0 0 0-4.458-1.488c.045 9.753 5.066 26.46 5.81 39.742-.085-1.228-.042-3.107-.042-4.247z" />
        <path fill="#B0B2B3" d="M83.318 41.96C78.884 27.57 70.008 10.12 64.888.258a93.2 93.2 0 0 0-9.54-.217C63.74 9.75 74.923 25.728 82.15 39.666c.452.834.868 1.645 1.168 2.295z" />
        <path fill="#1A171B" d="M72.416 23.88l1.822 2.918c2.096 3.178 4.1 6.373 5.928 9.502l.744 1.197c.41.678.84 1.43 1.24 2.168C74.922 25.728 63.74 9.75 55.35.04A82.03 82.03 0 0 0 53.78.1c5.64 6.175 12.372 14.786 18.5 23.782h.136z" />
        <path fill="#C5C6C8" d="M72.28 23.88C66.153 14.884 59.42 6.273 53.78.097c-.937.04-1.4.066-2.32.135 6.108 6.23 13.29 14.758 19.85 23.648h.97z" />
        <path fill="#58585A" d="M71.31 23.88C64.75 14.99 57.57 6.462 51.46.232c-1.843.133-3.48.31-5.21.572 7.023 6.324 15.128 14.56 22.613 23.076h2.448z" />
        <path fill="#FFF" d="M65.193 23.88h3.67C61.38 15.362 53.273 7.128 46.25.804c-3.018.465-5.41 1.037-7.927 1.986 8.21 6.516 17.83 14.324 26.87 22.207V23.88z" />
        <path fill="#58585A" d="M65.193 24.998c-9.04-7.883-18.66-15.69-26.87-22.207-1.795.68-3.423 1.5-4.89 2.49 9.39 7.003 20.974 15.036 31.76 22.872v-3.154z" />
        <path fill="#1A171B" d="M65.193 28.152c-10.785-7.836-22.37-15.87-31.76-22.873-.293.198-.195.132-.483.337 9.49 7.03 21.28 15.055 32.244 22.857v-.322z" />
        <path fill="#FFF" d="M84.18 23.88c-.002-6.703.09-13.2 1.67-18.195-.307-.19-.725-.44-1.047-.62C83.38 10.18 83.5 16.922 83.686 23.88h.494z" />
        <g fill="#B0B2B3">
            <path d="M71.105 33.294c.002.098.008.205.012.303.072.05.14.096.213.14-.076-.146-.162-.304-.225-.443zM65.193 28.474C54.23 20.67 42.44 12.646 32.95 5.617c-.574.412-1.293 1-1.805 1.47 9.827 7.077 22.386 15.02 34.048 22.622v-1.236z" />
        </g>
        <path fill="#58585A" d="M52.36 41.932c-3.07 0-6.094.004-8.972.006v3.594h2.32c3.804 0 5.743-1.4 6.653-3.6z" />
        <path fill="#1A171B" d="M45.97 29.417H43.39v12.52c2.878-.002 5.9-.006 8.973-.006.517-1.245.704-2.747.704-4.41 0-4.642-1.357-8.103-7.093-8.103z" />
    </symbol>
    <symbol viewBox="0 0 116 57" id="icon--sidnlabs-logo--fc">
        <title>sidnlabs-logo--fc</title>
        <g fill-rule="nonzero">
            <path d="M63.684 32.03C60.332 21.148 53.62 7.957 49.75.5c3.606.255 6.452.655 9.542 1.48.034 7.378 3.83 20.01 4.392 30.05z" fill="#11bbb9" />
            <path d="M.033 38.038V33.57c1.523.73 3.408 1.456 5.462 1.456 2.184 0 3.144-.727 3.144-1.92 0-1.588-1.424-1.62-4.602-3.012C1.952 29.2 0 27.612 0 24.17c0-4.17 3.145-6.09 7.448-6.09 2.283 0 4.137.496 5.296.925v4.37c-1.06-.496-2.98-1.126-4.9-1.126-1.886 0-2.746.63-2.746 1.722 0 1.19 1.125 1.62 3.045 2.316 3.145 1.126 5.892 2.35 5.892 6.587 0 4.204-3.31 6.356-7.614 6.356-2.68 0-4.733-.464-6.387-1.192zM49.98 32.006v-9.238c-8.817-5.75-18.313-11.756-25.742-17.103-2.99 2.72-5.166 7.346-6.132 12.697h5.16v13.66l5.066-.006V18.36h7.514c7.58 0 10.36 4.966 10.36 10.295a12.81 12.81 0 0 1-.44 3.35h4.214z"
            fill="#1468b3" />
            <path d="M58.36 32.016l-3.813-.006v6.97H49.98v-6.974h-4.214c-1.025 3.766-3.982 6.975-10.02 6.975h-7.414v-6.964l-5.065.006v6.96h-5.16c1.172 7.774 4.247 13.073 11.592 15.505 9.558-6.813 21.482-12.01 30.558-19.416l-1.898-3.054z" fill="#f15d2c"
            />
            <path d="M60.258 35.07c-9.076 7.407-21 12.604-30.56 19.417 2.558.933 5.324 1.517 8.464 1.916C45.215 50.05 54.126 44.04 60.788 35.92l-.53-.85z" fill="#e88040" />
            <path d="M63.124 38.98h-.432l-1.904-3.06c-6.662 8.12-15.573 14.13-22.626 20.483 8.408.99 16.5.893 23.143-1.406-.63-5.27.933-10.184 1.82-16.016z" fill="#672c91" />
            <path d="M65.927 38.98h-2.803c-.886 5.833-2.45 10.747-1.82 16.017 3.6-1.284 5.868-2.883 7.913-5.75-1.992-3.918-2.525-6.985-3.29-10.266z" fill="#1cabce" />
            <path d="M68.22 38.16v.82h-2.293c.765 3.282 1.298 6.35 3.29 10.267 1.092-1.54 2.022-3.516 2.686-5.565-1.713-2.268-2.71-3.935-3.684-5.52z" fill="#fff" />
            <path d="M73.96 24.246c-2.463 1.17-3.835 3.263-5.74 5.064v8.85c.974 1.587 1.97 3.254 3.683 5.522 1.875-5.877 2.34-12.29 2.057-19.436z" fill="#139849" />
            <path d="M73.764 21.342c-2.428 1.757-3.767 4.366-5.545 6.712v1.256c1.905-1.8 3.277-3.895 5.74-5.064-.047-1.06-.1-1.874-.196-2.904z" fill="#fff" />
            <path d="M73.04 16.438c-2.21 2.475-3.43 5.662-4.82 8.714v2.902c1.777-2.346 3.116-4.955 5.544-6.712a42.586 42.586 0 0 0-.724-4.904z" fill="#f15d2c" />
            <path d="M68.22 25.152c1.39-3.052 2.61-6.24 4.82-8.714-.067-.31-.043-.206-.114-.513-.847-3.68-2.097-6.446-4.254-8.782-1.504 3.202-2.124 7.15-2.615 11.217h2.162v6.792z" fill="#002d6a" />
            <path d="M66.057 18.36c.49-4.066 1.11-8.015 2.615-11.217a14.878 14.878 0 0 0-3.076-2.54c-1.195 3.775-1.263 8.69-1.262 13.757h1.723z" fill="#48ba7f" />
            <path d="M63.96 18.36c-.14-5.262-.23-10.357.845-14.223-.243-.136-.158-.09-.408-.222-1.008 3.908-.836 9.09-.62 14.445h.183z" fill="#002d6a" />
            <path d="M63.65 18.36h.126c-.215-5.355-.387-10.537.62-14.445a22.47 22.47 0 0 0-1.733-.807c-1.008 5.912.58 14.902.988 23.104V18.36z" fill="#48ba7f" />
            <path d="M63.65 28.82V26.21c-.407-8.202-1.995-17.192-.987-23.104a27.126 27.126 0 0 0-3.37-1.127c.033 7.378 3.828 20.01 4.39 30.05-.064-.926-.032-2.35-.032-3.21z" fill="#1468b3" />
            <path d="M63.684 32.03C60.332 21.148 53.62 7.957 49.75.5a70.317 70.317 0 0 0-7.21-.163c6.34 7.342 14.795 19.42 20.26 29.956.343.63.656 1.245.884 1.737z" fill="#e88040" />
            <path d="M42.54.337c-.36.01-.832.025-1.188.04 4.264 4.67 9.353 11.18 13.988 17.983h.102l1.377 2.207 4.47 7.167.01.017.564.905c.31.512.636 1.082.936 1.638C57.335 19.757 48.88 7.68 42.54.337z" fill="#672c91" />
            <path d="M55.34 18.36C50.705 11.558 45.616 5.05 41.352.378c-.71.03-1.06.052-1.756.1 4.62 4.713 10.05 11.16 15.008 17.882h.736z" fill="#1cabce" />
            <path d="M54.604 18.36C49.644 11.64 44.214 5.19 39.596.48c-1.394.1-2.63.234-3.938.435 5.31 4.778 11.44 11.005 17.098 17.445h1.848z" fill="#139849" />
            <path d="M49.98 18.36h2.776C47.096 11.92 40.97 5.693 35.658.915c-2.28.35-4.09.783-5.993 1.5 6.207 4.926 13.483 10.83 20.315 16.79v-.845z" fill="#fff" />
            <path d="M49.98 19.206c-6.832-5.96-14.108-11.865-20.315-16.79-1.356.51-2.586 1.13-3.697 1.882 7.1 5.294 15.86 11.368 24.012 17.292v-2.384z" fill="#f15d2c" />
            <path d="M49.98 21.59C41.828 15.667 33.068 9.593 25.968 4.3c-.22.15-.148.1-.364.254 7.174 5.314 16.086 11.383 24.376 17.28v-.24z" fill="#002d6a" />
            <path d="M64.334 18.36c0-5.068.067-9.982 1.262-13.756a18.92 18.92 0 0 0-.79-.467c-1.075 3.866-.985 8.96-.846 14.223h.374z" fill="#fff" />
            <path d="M58.36 32.016l-2.09-3.36c-.56-.882-1.207-1.96-1.65-2.84-.055-.114-.12-.235-.17-.34.003.075.004.156.01.232.034.88.087 1.898.087 2.78v3.522l3.813.006z" fill="#1468b3" />
            <path d="M49.98 21.833c-8.29-5.898-17.202-11.967-24.376-17.28-.434.31-.98.755-1.366 1.112 7.43 5.347 16.925 11.353 25.742 17.103v-.935z" fill="#48ba7f" />
            <path d="M40.28 32.006l-6.785.006v2.733h1.755c2.875 0 4.34-1.073 5.03-2.74z" fill="#f15d2c" />
            <path d="M35.448 22.53h-1.953v9.482l6.784-.006c.388-.94.532-2.095.532-3.35 0-3.51-1.028-6.125-5.364-6.125z" fill="#1468b3" />
            <path d="M49.98 21.59v-3.23h5.463l1.372 2.2 4.477 7.175c0 .006.005.01.008.016l.564.904c.31.513.636 1.083.936 1.64.343.63.656 1.244.884 1.736-.065-.926-.033-2.35-.033-3.21V18.36h4.57v20.62H62.69l-1.904-3.06-.53-.85-1.898-3.054-2.09-3.362c-.56-.88-1.206-1.958-1.65-2.84-.055-.112-.12-.233-.17-.337.003.074.004.155.01.23.034.882.087 1.9.087 2.782v10.49H49.98V21.59zM18.106 18.362h5.16v20.62h-5.16zM40.28 32.006c-.69 1.666-2.155 2.74-5.03 2.74h-1.755V22.53h1.953c4.336 0 5.364 2.615 5.364 6.123 0 1.256-.144 2.41-.533 3.35zM35.845 18.36h-7.514v20.62h7.415c6.037 0 8.994-3.208 10.02-6.974a12.81 12.81 0 0 0 .44-3.35c0-5.33-2.782-10.296-10.36-10.296z"
            fill="#fff" />
            <path d="M78.366 20.957H80.8v9.122h4.055v1.952h-6.49V20.957zM92.587 27.874l-.923-2.846c-.214-.658-.427-1.297-.552-1.812h-.035a46.597 46.597 0 0 1-.57 1.812l-.96 2.846h3.04zm-2.773-6.917h2.72l4.052 11.075h-2.648l-.71-2.203h-4.32l-.747 2.202h-2.505l4.16-11.075zM102.133 30.13c1.085 0 1.672-.497 1.672-1.476 0-.995-.552-1.51-1.654-1.51h-1.528v2.987h1.51zm-.052-4.656c1.103 0 1.565-.498 1.565-1.352 0-.765-.48-1.262-1.547-1.262h-1.476v2.614h1.46zm-3.892-4.517h4.212c2.4 0 3.698 1.14 3.698 2.827 0 1.37-.835 2.205-1.743 2.453v.035c1.19.268 2.08 1.104 2.08 2.543 0 2.025-1.53 3.217-3.93 3.217H98.19V20.957zM108.106 31.55v-2.114c.8.373 1.83.746 2.898.746 1.225 0 1.85-.424 1.85-1.243 0-.96-.837-1.066-2.507-1.797-1.14-.513-2.223-1.314-2.223-3.164 0-2.15 1.617-3.164 3.857-3.164 1.193 0 2.206.284 2.775.498v2.062c-.57-.268-1.582-.588-2.596-.588-1.102 0-1.618.41-1.618 1.12 0 .747.622.978 1.742 1.405 1.44.73 3.11 1.05 3.11 3.538 0 2.15-1.688 3.324-3.946 3.324-1.386 0-2.488-.248-3.342-.623z"
            fill="#1468b3" />
        </g>
    </symbol>
    <symbol viewBox="0 0 16 28" id="icon--sort--asc">
        <title>sort--asc</title>
        <path d="M16 11q0 .406-.297.703T15 12H1q-.406 0-.703-.297T0 11t.297-.703l7-7Q7.594 3 8 3t.703.297l7 7Q16 10.594 16 11z" />
    </symbol>
    <symbol viewBox="0 0 16 28" id="icon--sort--desc">
        <title>sort--desc</title>
        <path d="M16 17q0 .406-.297.703l-7 7Q8.406 25 8 25t-.703-.297l-7-7Q0 17.406 0 17t.297-.703T1 16h14q.406 0 .703.297T16 17z" />
    </symbol>
    <symbol viewBox="0 0 16 28" id="icon--sort">
        <title>sort</title>
        <path d="M16 17q0 .406-.297.703l-7 7Q8.406 25 8 25t-.703-.297l-7-7Q0 17.406 0 17t.297-.703T1 16h14q.406 0 .703.297T16 17zm0-6q0 .406-.297.703T15 12H1q-.406 0-.703-.297T0 11t.297-.703l7-7Q7.594 3 8 3t.703.297l7 7Q16 10.594 16 11z" />
    </symbol>
    <symbol viewBox="0 0 32 32" id="icon--terminology">
        <title>terminology</title>
        <path d="M28 4v26H7a3 3 0 0 1 0-6h19V0H6C3.8 0 2 1.8 2 4v24c0 2.2 1.8 4 4 4h24V4h-2z" />
        <path d="M7.002 26H7a1 1 0 0 0 0 2H26v-2H7z" />
    </symbol>
    <symbol viewBox="0 0 24.918692 24.999001" id="icon--twitter">
        <title>twitter</title>
        <path d="M11.948 0c-.3 0-.604.004-.92.013-.157.005-.367.01-.522.02-.313.012-.467.02-.775.044-.612.045-1.16.103-1.735.19C6.99.423 6.19.614 5.352.93a7.93 7.93 0 0 0-1.632.828l-.16.11c-.192.14-.433.335-.602.493C1.638 3.56.798 5.996.455 7.953c-.394 2.254-.652 5.994-.262 9.093.39 3.098 1.933 5.77 5.172 6.844 1.128.41 2.348.668 3.734.845a35.73 35.73 0 0 0 4.148.264c2.184 0 4.242-.257 6.055-.885 1.586-.566 2.587-1.27 3.49-2.535.482-.68.89-1.55 1.184-2.453.828-2.592 1.032-5.422.908-8.57-.02-.47-.045-.828-.087-1.283-.07-.756-.174-1.48-.318-2.16l-.05-.227c-.375-1.625-.925-2.843-1.877-3.872a6.43 6.43 0 0 0-1.357-1.12 9.62 9.62 0 0 0-.347-.206c-.107-.06-.07-.042-.182-.1-.22-.115-.524-.255-.763-.354-.48-.198-.947-.35-1.486-.496C17.056.376 15.8.2 14.21.086A30.348 30.348 0 0 0 11.948 0z"
        />
        <path d="M19.7 8c-.5.2-1.1.4-1.7.5.6-.4 1.1-.9 1.3-1.6-.6.3-1.2.6-1.9.7-.5-.6-1.3-.9-2.2-.9-1.6 0-3 1.3-3 3 0 .2 0 .5.1.7-2.4-.3-4.6-1.4-6.1-3.2-.2.4-.4.9-.4 1.5 0 1 .5 1.9 1.3 2.5-.5 0-.9-.1-1.3-.4 0 1.4 1 2.6 2.4 2.9-.3.1-.5.1-.8.1-.2 0-.4 0-.6-.1.4 1.2 1.5 2 2.8 2.1-1 .8-2.3 1.3-3.7 1.3h-.7c1.3.8 2.9 1.3 4.5 1.3 5.5 0 8.4-4.5 8.4-8.4v-.4c.7-.5 1.2-1 1.6-1.6z"
        fill="#fff" />
    </symbol>
    <symbol viewBox="0 0 23.998778 24.077999" id="icon--url">
        <title>url</title>
        <path d="M11.5 0c-.287 0-.578.004-.878.013-.152.006-.354.01-.503.02A21.723 21.723 0 0 0 7.7.26C6.732.41 5.963.59 5.155.896c-.577.218-1.1.48-1.57.8-.094.063-.064.042-.156.106a7.038 7.038 0 0 0-.58.474C1.58 3.433.77 5.777.44 7.662c-.38 2.17-.63 5.772-.253 8.757.376 2.983 1.862 5.558 4.982 6.59 1.083.398 2.26.645 3.593.815 1.36.16 2.7.253 3.994.253 2.104 0 4.087-.247 5.834-.852 1.53-.545 2.493-1.224 3.36-2.44.466-.656.86-1.494 1.142-2.364.798-2.497.994-5.222.875-8.255a24.25 24.25 0 0 0-.083-1.234 17.92 17.92 0 0 0-.307-2.084c-.026-.133-.018-.087-.046-.217-.36-1.563-.89-2.737-1.806-3.73a6.26 6.26 0 0 0-1.307-1.078 6.52 6.52 0 0 0-.334-.198c-.103-.058-.07-.04-.175-.096-.212-.11-.506-.245-.735-.34C18.71 1 18.26.85 17.74.71 16.43.36 15.22.19 13.69.083A29.983 29.983 0 0 0 11.498 0z"
        />
        <path d="M12.823 14.38a3.17 3.17 0 0 1-2.25-.93.752.752 0 0 1 1.063-1.065c.657.655 1.72.652 2.373 0l2.77-2.77a1.675 1.675 0 0 0 0-2.37c-.628-.63-1.74-.63-2.372 0l-1.112 1.112a.753.753 0 0 1-1.065-1.065l1.113-1.112c1.2-1.198 3.305-1.196 4.5 0 .598.6.928 1.4.928 2.25 0 .852-.33 1.65-.927 2.25l-2.77 2.77c-.62.62-1.434.93-2.25.93z"
        fill="#fff" />
        <path d="M8.406 18.797c-.815 0-1.63-.31-2.25-.93a3.188 3.188 0 0 1 0-4.5l2.77-2.77c1.2-1.197 3.305-1.196 4.5.002a.753.753 0 1 1-1.065 1.06c-.626-.627-1.738-.63-2.37.002l-2.77 2.77a1.68 1.68 0 0 0 0 2.373 1.68 1.68 0 0 0 2.37-.002l1.114-1.113a.753.753 0 0 1 1.065 1.065l-1.115 1.113a3.17 3.17 0 0 1-2.25.93z"
        fill="#fff" />
    </symbol>
    <symbol viewBox="0 0 24.00014 24.082001" id="icon--whois">
        <title>whois</title>
        <path d="M11.505 0c-.287 0-.58.004-.882.013-.15.005-.354.01-.503.018-.3.014-.45.022-.747.044-.59.044-1.117.1-1.672.185-.967.148-1.736.333-2.545.638-.577.217-1.1.48-1.57.798l-.156.107a7.038 7.038 0 0 0-.58.474C1.577 3.433.767 5.777.437 7.662c-.38 2.17-.628 5.773-.25 8.76.375 2.983 1.86 5.56 4.98 6.592 1.085.396 2.262.644 3.596.814 1.36.16 2.7.254 3.995.254 2.103 0 4.086-.247 5.832-.852 1.53-.545 2.492-1.225 3.36-2.44.465-.656.86-1.494 1.142-2.364.798-2.496.993-5.22.874-8.255-.02-.452-.043-.795-.083-1.234a17.854 17.854 0 0 0-.307-2.082c-.027-.133-.018-.087-.047-.217-.36-1.564-.89-2.738-1.806-3.73a6.188 6.188 0 0 0-1.308-1.078 5.785 5.785 0 0 0-.335-.2c-.102-.057-.067-.038-.173-.095-.21-.11-.505-.245-.735-.34-.463-.192-.912-.34-1.43-.48-1.313-.35-2.524-.52-4.054-.63A27.75 27.75 0 0 0 11.505 0z"
        />
        <g fill="#fff">
            <path d="M2.203 15.94c0-.843.722-1.564 1.565-1.564.963 0 1.565.722 1.565 1.565 0 .844-.722 1.565-1.565 1.565-.964 0-1.565-.72-1.565-1.564zM7.5 7.874h2.528v.723c.48-.36 1.324-.963 2.648-.963 2.288 0 3.13 1.444 3.13 3.37v6.262h-2.528v-5.9c0-1.083-.36-1.685-1.445-1.685-.602 0-1.204.24-1.565.603v6.983h-2.77V7.874H7.5zM18.095 4.262h2.528v13.123h-2.528V4.262z"
            />
        </g>
    </symbol>
    <symbol viewBox="0 0 24.000139 24.081999" id="icon--wrench">
        <title>wrench</title>
        <path d="M11.505 0c-.287 0-.58.004-.882.013-.15.005-.354.01-.503.018-.3.014-.45.022-.747.044-.59.044-1.117.1-1.672.185-.967.15-1.736.333-2.545.638-.577.217-1.1.48-1.57.798l-.156.107a7.038 7.038 0 0 0-.58.474C1.577 3.433.767 5.777.437 7.662c-.38 2.17-.628 5.773-.25 8.76.375 2.983 1.86 5.56 4.98 6.592 1.085.396 2.262.644 3.596.813 1.36.16 2.7.255 3.995.255 2.103 0 4.086-.247 5.832-.852 1.53-.545 2.492-1.225 3.36-2.44.465-.656.86-1.494 1.142-2.364.798-2.496.993-5.22.874-8.255-.02-.452-.043-.795-.083-1.234a17.854 17.854 0 0 0-.307-2.082c-.027-.133-.018-.087-.047-.217-.36-1.564-.89-2.738-1.806-3.73a6.188 6.188 0 0 0-1.308-1.078 5.785 5.785 0 0 0-.335-.2c-.102-.057-.067-.038-.173-.095-.21-.11-.505-.245-.735-.34-.463-.192-.912-.34-1.43-.48-1.313-.35-2.524-.52-4.054-.63A27.75 27.75 0 0 0 11.505 0z"
        />
        <path d="M4.256 17.333l7.88-7.88a3.906 3.906 0 0 1 5.95-4.434L15.29 6.595l-.02 2.043 1.76 1.037 2.714-1.53v.068a3.905 3.905 0 0 1-5.18 3.69l-7.868 7.87-2.44-2.44z" fill="#fff" />
    </symbol>
    <symbol viewBox="0 0 24.000497 24.999" id="icon--youtube">
        <title>youtube</title>
        <path d="M11.51 0c-.29 0-.583.005-.887.014-.15.005-.354.01-.503.018-.3.013-.45.02-.747.045A20.66 20.66 0 0 0 7.7.267c-.968.157-1.736.347-2.544.664a7.49 7.49 0 0 0-1.572.83c-.094.065-.062.044-.155.11a6.86 6.86 0 0 0-.58.49C1.58 3.563.768 5.996.44 7.953c-.38 2.254-.63 5.994-.253 9.093.376 3.1 1.862 5.772 4.98 6.845 1.087.412 2.262.67 3.597.845 1.36.167 2.702.264 3.996.264 2.104 0 4.085-.257 5.832-.885 1.528-.566 2.492-1.27 3.36-2.535.465-.68.858-1.55 1.142-2.453.797-2.592.994-5.422.875-8.57-.022-.47-.044-.827-.085-1.282a19.47 19.47 0 0 0-.306-2.162l-.048-.225c-.362-1.625-.892-2.844-1.81-3.872-.378-.43-.81-.8-1.306-1.12a6.933 6.933 0 0 0-.334-.206c-.102-.06-.067-.04-.174-.1a10.2 10.2 0 0 0-.735-.354c-.463-.2-.912-.35-1.43-.497C16.43.374 15.218.2 13.687.084A28.697 28.697 0 0 0 11.508 0z"
        />
        <path d="M19.072 9.5s-.097-1-.578-1.5c-.578-.6-1.156-.6-1.445-.6-2.023-.2-5.01-.2-5.01-.2s-2.984 0-5.007.2c-.29 0-.867 0-1.444.6-.483.5-.675 1.5-.675 1.5s-.096 1.2-.096 2.4V13c0 1.2.19 2.4.19 2.4s.097 1 .58 1.5c.577.6 1.25.6 1.636.6 1.156.1 4.912.2 4.912.2s3.082 0 5.104-.2c.29 0 .867 0 1.444-.6.385-.5.578-1.5.578-1.5s.096-1.2.096-2.4v-1.1c-.096-1.2-.288-2.4-.288-2.4zm-9.066 5.426v-5.25l4.936 2.625-4.936 2.626z"
        fill="#fff" />
    </symbol>
</svg>