<?xml version="1.0" encoding="utf-8"?>
<!DOCTYPE svg PUBLIC "-//W3C//DTD SVG 1.1//EN" "http://www.w3.org/Graphics/SVG/1.1/DTD/svg11.dtd">
<svg version="1.1" id="Layer_1" xmlns="http://www.w3.org/2000/svg" xmlns:xlink="http://www.w3.org/1999/xlink" x="0px" y="0px"
	 width="141.732px" height="141.73px" viewBox="0 0 141.732 141.73" enable-background="new 0 0 141.732 141.73"
	 xml:space="preserve">
<path fill="#143E7F" d="M65.572,139.254c2.925,2.924,7.665,2.924,10.589,0l63.096-63.094c2.925-2.925,2.925-7.665,0-10.59
	L76.161,2.477c-2.924-2.924-7.664-2.924-10.589,0L2.477,65.571c-2.924,2.925-2.924,7.665,0,10.59L65.572,139.254z"/>
<path fill="#FFFFFF" d="M99.596,40.164c-0.346-1.008-1.437-1.539-2.435-1.19s-1.522,1.453-1.174,2.464
	c2.944,8.544-2.899,14.925-7.351,18.339l-1.801-2.605c-0.603-0.87-1.959-1.597-3.009-1.613l-10.096,0.048
	c-1.05-0.016-2.611,0.47-3.475,1.078L40.51,77.768c-1.44,1.021-1.795,3.029-0.784,4.49l13.523,19.541
	c1.008,1.459,2.63,1.283,4.07,0.267l29.747-21.085c0.864-0.608,1.846-1.934,2.194-2.938l3.162-10.067
	c0.342-1.005,0.135-2.541-0.467-3.411l-1.102-1.587C96.837,58.353,103.044,50.172,99.596,40.164z M85.757,70.103
	c-2.307,1.635-5.484,1.066-7.101-1.267c-1.612-2.333-1.054-5.549,1.254-7.184c1.83-1.299,4.208-1.203,5.92,0.058
	c-0.864,0.525-1.452,0.826-1.565,0.88c-0.953,0.454-1.362,1.606-0.912,2.573c0.326,0.701,1.012,1.114,1.731,1.114
	c0.272,0,0.55-0.061,0.813-0.186c0.611-0.291,1.273-0.646,1.962-1.059c0.307,1.898-0.442,3.894-2.103,5.072V70.103z"/>
</svg>
