<?xml version="1.0" encoding="utf-8"?>
<!DOCTYPE svg PUBLIC "-//W3C//DTD SVG 1.1//EN" "http://www.w3.org/Graphics/SVG/1.1/DTD/svg11.dtd">
<svg version="1.1" id="Layer_1" xmlns="http://www.w3.org/2000/svg" xmlns:xlink="http://www.w3.org/1999/xlink" x="0px" y="0px"
	 width="141.732px" height="141.73px" viewBox="0 0 141.732 141.73" enable-background="new 0 0 141.732 141.73"
	 xml:space="preserve">
<path fill="#2EA9CC" d="M65.572,139.254c2.925,2.924,7.665,2.924,10.589,0l63.096-63.094c2.925-2.925,2.925-7.665,0-10.59
	L76.161,2.477c-2.924-2.924-7.664-2.924-10.589,0L2.477,65.571c-2.924,2.925-2.924,7.665,0,10.59L65.572,139.254z"/>
<path fill="#FFFFFF" d="M70.472,41.428c-16.256,0.218-29.261,13.571-29.043,29.83c0.218,16.262,13.574,29.261,29.83,29.046
	c16.259-0.219,29.264-13.574,29.042-29.831C100.084,54.213,86.727,41.211,70.472,41.428z M70.527,45.265
	c4.384-0.061,8.524,0.992,12.159,2.883l-3.961,6.605c-2.375-1.155-5.041-1.808-7.859-1.808c-2.816,0-5.482,0.653-7.856,1.811
	l-3.958-6.602C62.489,46.363,66.386,45.323,70.527,45.265L70.527,45.265z M54.757,78.721l-6.598,3.955
	c-1.792-3.434-2.832-7.33-2.886-11.469c-0.061-4.387,0.992-8.528,2.883-12.16l6.602,3.965c-1.158,2.371-1.811,5.034-1.811,7.853
	C52.947,73.682,53.6,76.348,54.757,78.721L54.757,78.721z M71.208,96.463c-4.384,0.061-8.528-0.992-12.16-2.884l3.962-6.604
	c2.374,1.158,5.04,1.811,7.856,1.811c2.818,0,5.484-0.65,7.855-1.809l3.959,6.599c-3.438,1.789-7.332,2.829-11.473,2.886V96.463z
	 M70.866,84.943c-7.776,0-14.077-6.304-14.077-14.077c0-7.776,6.304-14.08,14.077-14.08c7.779,0,14.08,6.304,14.08,14.08
	C84.946,78.641,78.645,84.943,70.866,84.943z M86.975,78.721c1.158-2.373,1.811-5.039,1.811-7.855c0-2.819-0.652-5.482-1.811-7.856
	l6.598-3.962c1.792,3.437,2.835,7.331,2.891,11.472c0.057,4.387-0.996,8.528-2.887,12.161L86.975,78.721z"/>
</svg>
