<?xml version="1.0" encoding="utf-8"?>
<!DOCTYPE svg PUBLIC "-//W3C//DTD SVG 1.1//EN" "http://www.w3.org/Graphics/SVG/1.1/DTD/svg11.dtd">
<svg version="1.1" id="Layer_1" xmlns="http://www.w3.org/2000/svg" xmlns:xlink="http://www.w3.org/1999/xlink" x="0px" y="0px"
	 width="141.732px" height="141.73px" viewBox="0 0 141.732 141.73" enable-background="new 0 0 141.732 141.73"
	 xml:space="preserve">
<path fill="#143E7F" d="M65.572,139.254c2.925,2.924,7.665,2.924,10.589,0l63.096-63.094c2.926-2.925,2.926-7.665,0-10.59
	L76.161,2.477c-2.924-2.925-7.664-2.925-10.589,0L2.477,65.571c-2.924,2.925-2.924,7.665,0,10.59L65.572,139.254z"/>
<g>
	<path fill="#FFFFFF" d="M104.712,62.073c-0.01-3.323-2.393-6.155-5.467-6.552l-34.342-4.73c-5.404-0.703-11.105,2.411-11.041,7.044
		v1.796l5.821,0.001v-1.529c-0.119-3.017,2.976-5.32,6.791-4.855l32.77,4.182c2.119,0.345,3.74,2.176,3.809,4.581
		c0,0,0.002,18.191,0.002,19.622c-0.025,2.082-1.762,4.448-4.209,4.848c-0.176,0.018-32.325,4.132-32.325,4.132
		c-3.915,0.514-6.867-1.566-6.836-4.855v-1.833l-5.823-0.01v2.235c0.013,4.768,5.637,7.626,11.041,6.921l34.398-4.737l0.062-0.019
		c3.148-0.489,5.348-3.345,5.35-6.396l-0.002-0.068V62.073"/>
	<path fill="#FFFFFF" d="M38.816,76.714c0.629,0.355,2.483,1.145,4.312,1.145c1.939,0,2.622-0.844,2.622-2.046
		c0-1.255-0.847-1.609-2.32-2.185l-1.121-0.436c-3.141-1.227-4.095-2.921-4.095-5.624c0-3.603,2.892-5.652,6.933-5.652
		c1.449,0,3.25,0.136,4.807,0.765l-0.218,3.742c-0.901-0.463-2.458-0.958-3.932-0.958c-1.529,0-2.458,0.627-2.458,1.803
		c0,0.981,0.491,1.42,2.183,2.184l2.293,1.038c1.72,0.792,3.222,1.992,3.222,4.83c0,4.178-3.003,6.31-7.452,6.31
		c-2.295,0-4.126-0.493-5.079-0.737L38.816,76.714"/>
	<rect x="53.863" y="62.244" fill="#FFFFFF" width="5.814" height="19.057"/>
	<path fill="#FFFFFF" d="M68.826,77.641h1.119c2.946,0,4.422-2.102,4.422-5.787c0-4.886-2.348-5.842-5.132-5.842h-0.41V77.641
		 M63.694,62.244h7.344c5.598,0,8.736,3.743,8.736,9.42c0,6.605-3.496,9.637-9.527,9.637h-6.553V62.244z"/>
	<polygon fill="#FFFFFF" points="92.305,81.301 98.309,81.301 98.309,62.244 93.833,62.244 93.833,75.377 93.778,75.377 
		88.784,62.244 82.829,62.244 82.829,81.301 87.307,81.301 87.307,68.087 87.419,68.087 	"/>
</g>
</svg>
