<?xml version="1.0" encoding="UTF-8" standalone="no"?>
<!-- Created with Inkscape (http://www.inkscape.org/) -->

<svg
   xmlns:dc="http://purl.org/dc/elements/1.1/"
   xmlns:cc="http://creativecommons.org/ns#"
   xmlns:rdf="http://www.w3.org/1999/02/22-rdf-syntax-ns#"
   xmlns:svg="http://www.w3.org/2000/svg"
   xmlns="http://www.w3.org/2000/svg"
   xmlns:sodipodi="http://sodipodi.sourceforge.net/DTD/sodipodi-0.dtd"
   xmlns:inkscape="http://www.inkscape.org/namespaces/inkscape"
   id="svg3198"
   version="1.1"
   inkscape:version="0.48.2 r9819"
   width="211.75417"
   height="140"
   xml:space="preserve"
   sodipodi:docname="SIDN_het_bedrijf_achter_blauw_EPS.pdf"><metadata
     id="metadata3204"><rdf:RDF><cc:Work
         rdf:about=""><dc:format>image/svg+xml</dc:format><dc:type
           rdf:resource="http://purl.org/dc/dcmitype/StillImage" /><dc:title></dc:title></cc:Work></rdf:RDF></metadata><defs
     id="defs3202"><clipPath
       clipPathUnits="userSpaceOnUse"
       id="clipPath3214"><path
         d="m 13,203 583.8365,0 0,386 L 13,589 13,203 z"
         id="path3216"
         inkscape:connector-curvature="0" /></clipPath><clipPath
       clipPathUnits="userSpaceOnUse"
       id="clipPath3224"><path
         d="m 13,203 586,0 0,386 -586,0 0,-386 z"
         id="path3226"
         inkscape:connector-curvature="0" /></clipPath></defs><sodipodi:namedview
     pagecolor="#ffffff"
     bordercolor="#666666"
     borderopacity="1"
     objecttolerance="10"
     gridtolerance="10"
     guidetolerance="10"
     inkscape:pageopacity="0"
     inkscape:pageshadow="2"
     inkscape:window-width="1612"
     inkscape:window-height="1020"
     id="namedview3200"
     showgrid="false"
     fit-margin-top="0"
     fit-margin-left="0"
     fit-margin-right="0"
     fit-margin-bottom="0"
     inkscape:zoom="0.67425131"
     inkscape:cx="978.37746"
     inkscape:cy="-42.119473"
     inkscape:window-x="0"
     inkscape:window-y="22"
     inkscape:window-maximized="0"
     inkscape:current-layer="g3206" /><g
     id="g3206"
     inkscape:groupmode="layer"
     inkscape:label="SIDN_het_bedrijf_achter_blauw_EPS"
     transform="matrix(1.25,0,0,-1.25,-16.25,393.75001)"><g
       id="g3208" /><g
       id="g3274"
       transform="matrix(0.29015544,0,0,0.29015544,9.2279793,144.09845)"><g
         id="g3210"><g
           clip-path="url(#clipPath3214)"
           id="g3212"><path
             id="path3218"
             style="fill:#142c61;fill-opacity:1;fill-rule:nonzero;stroke:none"
             d="m 596.7901,508.2279 c -0.031,23.6135 -16.9832,43.7933 -38.8695,46.6135 L 313.5,588.4984 c -38.4157,5.0063 -79.0227,-17.1533 -78.5639,-50.1658 l 0,-12.7452 41.4371,-0.0309 0,10.9097 c -0.8456,21.4584 21.18,37.8435 48.3304,34.518 l 233.217,-29.7335 c 15.0445,-2.4541 26.6193,-15.4931 27.1091,-32.5846 0,0 0,-129.4773 0,-139.6651 -0.2114,-14.8126 -12.5234,-31.6308 -29.9448,-34.482 -1.258,-0.1546 -230.0514,-29.3931 -230.0514,-29.3931 -27.8464,-3.6606 -48.8614,11.1159 -48.6191,34.5128 l 0,13.0442 -41.4783,0.0979 0,-15.9159 C 235.065,302.945 275.0843,282.6105 313.5,287.622 l 244.8124,33.6982 0.4537,0.1495 c 22.4071,3.4596 38.024,23.7888 38.0704,45.505 l 0,0.4641 -0.0464,140.7891"
             inkscape:connector-curvature="0" /></g></g><g
         id="g3220"><g
           clip-path="url(#clipPath3224)"
           id="g3222"><path
             id="path3228"
             style="fill:#142c61;fill-opacity:1;fill-rule:nonzero;stroke:none"
             d="m 127.8813,404.0036 c 4.4649,-2.5109 17.6792,-8.1152 30.6666,-8.1152 13.8124,0 18.6846,5.9704 18.6846,14.5342 0,8.9504 -6.0374,11.451 -16.514,15.5601 l -7.976,3.0987 c -22.34,8.7287 -29.1508,20.7726 -29.1508,40.0192 0,25.614 20.5974,40.2203 49.346,40.2203 10.3477,0 23.1186,-0.9847 34.1984,-5.4239 L 205.61,477.2571 c -6.419,3.2945 -17.4936,6.7798 -27.9908,6.7798 -10.8839,0 -17.5039,-4.4546 -17.5039,-12.8018 0,-6.9809 3.5008,-10.1053 15.555,-15.555 l 16.2975,-7.3779 c 12.245,-5.625 22.9484,-14.1527 22.9484,-34.3788 0,-29.7283 -21.3604,-44.8864 -53.0479,-44.8864 -16.3078,0 -29.3416,3.5008 -36.1215,5.259 l 2.1345,29.7076"
             inkscape:connector-curvature="0" /><path
             id="path3230"
             style="fill:#142c61;fill-opacity:1;fill-rule:nonzero;stroke:none"
             d="m 234.9361,506.9854 41.3701,0 0,-135.6076 -41.3701,0 0,135.6076 z"
             inkscape:connector-curvature="0" /><path
             id="path3232"
             style="fill:#142c61;fill-opacity:1;fill-rule:nonzero;stroke:none"
             d="m 304.9414,506.9854 52.2385,0 c 39.8285,0 62.1685,-26.6245 62.1685,-67.0202 0,-47.0311 -24.887,-68.5874 -67.8038,-68.5874 l -46.6032,0 0,135.6076 z m 36.5133,-109.5812 7.9503,0 c 20.9892,0 31.4709,14.9569 31.4709,41.1844 0,34.7707 -16.6841,41.5866 -36.5133,41.5866 l -2.9079,0 0,-82.771"
             inkscape:connector-curvature="0" /><path
             id="path3234"
             style="fill:#142c61;fill-opacity:1;fill-rule:nonzero;stroke:none"
             d="m 473.7471,465.4091 -0.7836,0 0,-94.0313 -31.8474,0 0,135.6076 42.3549,0 35.5285,-93.459 0.3764,0 0,93.459 31.8885,0 0,-135.6076 -42.7672,0"
             inkscape:connector-curvature="0" /><path
             id="path3236"
             style="fill:#142c61;fill-opacity:1;fill-rule:nonzero;stroke:none"
             d="m 32.20532,216.4721 0,18.535 c 0,5.2486 -2.80475,7.9245 -7.31607,7.9245 -4.51132,0 -7.50167,-2.7377 -7.50167,-7.9245 l 0,-18.535 -4.38758,0 0,43.4117 4.38758,0 0,-16.7047 c 2.19636,2.4954 5.06298,3.6554 8.41425,3.6554 6.76955,0 10.79106,-4.3257 10.79106,-11.0901 l 0,-19.2723 -4.38757,0"
             inkscape:connector-curvature="0" /><path
             id="path3238"
             style="fill:#142c61;fill-opacity:1;fill-rule:nonzero;stroke:none"
             d="m 67.86791,238.6059 c -1.16005,2.7429 -3.84622,4.5113 -7.01187,4.5113 -3.17081,0 -5.85698,-1.7684 -7.01188,-4.5113 -0.67025,-1.6447 -0.79399,-2.5624 -0.91257,-5.0011 l 15.8489,0 c -0.12374,2.4387 -0.24232,3.3564 -0.91258,5.0011 z m -14.93632,-8.2905 c 0,-6.5891 3.10894,-10.3683 8.83702,-10.3683 3.47501,0 5.48576,1.0363 7.86258,3.4131 l 2.99036,-2.6191 c -3.04707,-3.0471 -5.85182,-4.6351 -10.97152,-4.6351 -7.9296,0 -13.11117,4.7588 -13.11117,15.3643 0,9.6929 4.69692,15.3642 12.31718,15.3642 7.74399,0 12.31202,-5.6095 12.31202,-14.5135 l 0,-2.0056 -20.23647,0"
             inkscape:connector-curvature="0" /><path
             id="path3240"
             style="fill:#142c61;fill-opacity:1;fill-rule:nonzero;stroke:none"
             d="m 93.89434,216.4721 c -5.1197,0 -7.68213,3.5987 -7.68213,8.0482 l 0,18.4113 -3.77919,0 0,3.3564 3.77919,0 0,9.3887 4.39273,0 0,-9.3887 6.4035,0 0,-3.3564 -6.4035,0 0,-18.2876 c 0,-2.7429 1.27864,-4.3876 4.08339,-4.3876 l 2.32011,0 0,-3.7843 -3.1141,0"
             inkscape:connector-curvature="0" /><path
             id="path3242"
             style="fill:#142c61;fill-opacity:1;fill-rule:nonzero;stroke:none"
             d="m 129.7425,242.9316 c -6.5272,0 -7.5635,-5.6095 -7.5635,-11.4613 0,-5.8519 1.0363,-11.4614 7.5635,-11.4614 6.5221,0 7.4966,5.6095 7.4966,11.4614 0,5.8518 -0.9745,11.4613 -7.4966,11.4613 z m 8.2287,-24.2013 c -1.588,-1.588 -4.269,-2.6243 -7.3161,-2.6243 -3.2945,0 -6.0374,0.794 -8.4761,3.9648 l 0,-3.5987 -4.3876,0 0,43.4117 4.3876,0 0,-16.8852 c 2.4387,3.1038 5.1816,3.8359 8.4761,3.8359 3.0471,0 5.7281,-1.0311 7.3161,-2.6191 3.0471,-3.0522 3.6554,-8.0482 3.6554,-12.7451 0,-4.697 -0.6083,-9.6878 -3.6554,-12.74"
             inkscape:connector-curvature="0" /><path
             id="path3244"
             style="fill:#142c61;fill-opacity:1;fill-rule:nonzero;stroke:none"
             d="m 171.6179,238.6059 c -1.1549,2.7429 -3.8411,4.5113 -7.0119,4.5113 -3.1708,0 -5.8518,-1.7684 -7.0119,-4.5113 -0.6702,-1.6447 -0.7888,-2.5624 -0.9126,-5.0011 l 15.8489,0 c -0.1185,2.4387 -0.2371,3.3564 -0.9125,5.0011 z m -14.9364,-8.2905 c 0,-6.5891 3.109,-10.3683 8.8422,-10.3683 3.475,0 5.4858,1.0363 7.8626,3.4131 l 2.9904,-2.6191 c -3.0523,-3.0471 -5.857,-4.6351 -10.9767,-4.6351 -7.9296,0 -13.106,4.7588 -13.106,15.3643 0,9.6929 4.6917,15.3642 12.312,15.3642 7.744,0 12.3172,-5.6095 12.3172,-14.5135 l 0,-2.0056 -20.2417,0"
             inkscape:connector-curvature="0" /><path
             id="path3246"
             style="fill:#142c61;fill-opacity:1;fill-rule:nonzero;stroke:none"
             d="m 199.5416,242.9316 c -6.5272,0 -7.5635,-5.6095 -7.5635,-11.4613 0,-5.8519 1.0363,-11.4614 7.5635,-11.4614 6.5221,0 7.4965,5.6095 7.4965,11.4614 0,5.8518 -0.9744,11.4613 -7.4965,11.4613 z m 7.5584,-26.4595 0,3.5987 c -2.4387,-3.1708 -5.2434,-3.9648 -8.538,-3.9648 -3.047,0 -5.7281,1.0363 -7.316,2.6243 -3.0471,3.0522 -3.6555,8.043 -3.6555,12.74 0,4.6969 0.6084,9.6929 3.6555,12.7451 1.5879,1.588 4.269,2.6191 7.316,2.6191 3.2946,0 6.0375,-0.7321 8.4761,-3.8359 l 0,16.8852 4.3928,0 0,-43.4117 -4.3309,0"
             inkscape:connector-curvature="0" /><path
             id="path3248"
             style="fill:#142c61;fill-opacity:1;fill-rule:nonzero;stroke:none"
             d="m 242.0924,240.7404 c -1.6499,1.6447 -2.8667,2.1912 -5.1868,2.1912 -4.3875,0 -7.1923,-3.475 -7.1923,-8.043 l 0,-18.4165 -4.3876,0 0,30.0015 4.3876,0 0,-3.6606 c 1.6447,2.5006 4.9392,4.0215 8.4143,4.0215 2.8666,0 5.0578,-0.6702 7.1923,-2.8047 l -3.2275,-3.2894"
             inkscape:connector-curvature="0" /><path
             id="path3250"
             style="fill:#142c61;fill-opacity:1;fill-rule:nonzero;stroke:none"
             d="m 253.9713,246.4736 4.3876,0 0,-29.9964 -4.3876,0 0,29.9964 z m -0.2423,13.4721 4.9392,0 0,-4.9393 -4.9392,0 0,4.9393 z"
             inkscape:connector-curvature="0" /><path
             id="path3252"
             style="fill:#142c61;fill-opacity:1;fill-rule:nonzero;stroke:none"
             d="m 272.1403,259.9457 4.9392,0 0,-4.9393 -4.9392,0 0,4.9393 z M 269.1499,203 l -3.1708,0 0,3.8411 2.3768,0 c 3.0523,0 4.0267,1.4591 4.0267,4.3927 l 0,35.0542 4.3876,0 0,-35.245 c 0,-4.568 -2.3768,-8.043 -7.6203,-8.043"
             inkscape:connector-curvature="0" /><path
             id="path3254"
             style="fill:#142c61;fill-opacity:1;fill-rule:nonzero;stroke:none"
             d="m 296.156,242.9316 0,-26.4595 -4.3876,0 0,26.4595 -3.8411,0 0,3.3564 3.8411,0 0,5.6714 c 0,4.4494 2.5005,8.0482 7.6202,8.0482 l 3.1709,0 0,-3.7844 -2.3769,0 c -2.8047,0 -4.0266,-1.6447 -4.0266,-4.3876 l 0,-5.5476 6.4035,0 0,-3.3564 -6.4035,0"
             inkscape:connector-curvature="0" /><path
             id="path3256"
             style="fill:#142c61;fill-opacity:1;fill-rule:nonzero;stroke:none"
             d="m 338.949,230.3154 -8.4142,0 c -4.5113,0 -6.7077,-1.8303 -6.7077,-5.3053 0,-3.475 2.1345,-5.1249 6.8933,-5.1249 2.5572,0 4.8155,0.1856 6.7077,2.0159 1.0311,0.9745 1.5209,2.6862 1.5209,5.1816 l 0,3.2327 z m 0,-13.8433 0,2.8666 c -2.4387,-2.4387 -4.635,-3.2327 -8.6566,-3.2327 -4.1504,0 -6.5839,0.794 -8.4709,2.7429 -1.4694,1.4642 -2.2583,3.7225 -2.2583,6.0993 0,5.2434 3.6555,8.6566 10.3632,8.6566 l 9.0226,0 0,2.8666 c 0,4.3927 -2.1964,6.5891 -7.677,6.5891 -3.8462,0 -5.8002,-0.9177 -7.5635,-3.4183 l -2.9852,2.7429 c 2.6759,3.475 5.7281,4.4494 10.6055,4.4494 8.0481,0 12.0078,-3.475 12.0078,-9.9971 l 0,-20.3653 -4.3876,0"
             inkscape:connector-curvature="0" /><path
             id="path3258"
             style="fill:#142c61;fill-opacity:1;fill-rule:nonzero;stroke:none"
             d="m 368.6412,216.106 c -7.5635,0 -13.2968,5.1249 -13.2968,15.3643 0,10.2445 5.7333,15.3642 13.2968,15.3642 4.1401,0 6.7644,-1.0982 9.8733,-4.4494 l -2.9852,-2.8048 c -2.2582,2.5006 -4.0266,3.3513 -6.8881,3.3513 -2.9336,0 -5.3672,-1.1549 -6.9552,-3.4131 -1.4023,-1.9489 -1.9488,-4.2639 -1.9488,-8.0482 0,-3.7792 0.5465,-6.0942 1.9488,-8.0482 1.588,-2.2583 4.0216,-3.4132 6.9552,-3.4132 2.8615,0 4.6299,0.9126 6.8881,3.4132 l 2.9852,-2.8666 c -3.1089,-3.3513 -5.7332,-4.4495 -9.8733,-4.4495"
             inkscape:connector-curvature="0" /><path
             id="path3260"
             style="fill:#142c61;fill-opacity:1;fill-rule:nonzero;stroke:none"
             d="m 409.0523,216.4721 0,18.535 c 0,5.2486 -2.8048,7.9245 -7.3161,7.9245 -4.5113,0 -7.4965,-2.7377 -7.4965,-7.9245 l 0,-18.535 -4.3876,0 0,43.4117 4.3876,0 0,-16.7047 c 2.1964,2.4954 5.063,3.6554 8.4143,3.6554 6.7695,0 10.791,-4.3257 10.791,-11.0901 l 0,-19.2723 -4.3927,0"
             inkscape:connector-curvature="0" /><path
             id="path3262"
             style="fill:#142c61;fill-opacity:1;fill-rule:nonzero;stroke:none"
             d="m 435.4499,216.4721 c -5.1248,0 -7.6873,3.5987 -7.6873,8.0482 l 0,18.4113 -3.7791,0 0,3.3564 3.7791,0 0,9.3887 4.3928,0 0,-9.3887 6.4035,0 0,-3.3564 -6.4035,0 0,-18.2876 c 0,-2.7429 1.2786,-4.3876 4.0834,-4.3876 l 2.3201,0 0,-3.7843 -3.109,0"
             inkscape:connector-curvature="0" /><path
             id="path3264"
             style="fill:#142c61;fill-opacity:1;fill-rule:nonzero;stroke:none"
             d="m 467.9469,238.6059 c -1.1601,2.7429 -3.8411,4.5113 -7.0119,4.5113 -3.1708,0 -5.857,-1.7684 -7.0119,-4.5113 -0.6702,-1.6447 -0.794,-2.5624 -0.9126,-5.0011 l 15.8489,0 c -0.1185,2.4387 -0.2423,3.3564 -0.9125,5.0011 z m -14.9364,-8.2905 c 0,-6.5891 3.1038,-10.3683 8.8422,-10.3683 3.4699,0 5.4806,1.0363 7.8626,3.4131 l 2.9852,-2.6191 c -3.0471,-3.0471 -5.8518,-4.6351 -10.9767,-4.6351 -7.9244,0 -13.106,4.7588 -13.106,15.3643 0,9.6929 4.6918,15.3642 12.3172,15.3642 7.744,0 12.3172,-5.6095 12.3172,-14.5135 l 0,-2.0056 -20.2417,0"
             inkscape:connector-curvature="0" /><path
             id="path3266"
             style="fill:#142c61;fill-opacity:1;fill-rule:nonzero;stroke:none"
             d="m 502.2638,240.7404 c -1.6447,1.6447 -2.8615,2.1912 -5.1764,2.1912 -4.3927,0 -7.1975,-3.475 -7.1975,-8.043 l 0,-18.4165 -4.3876,0 0,30.0015 4.3876,0 0,-3.6606 c 1.6447,2.5006 4.9393,4.0215 8.4143,4.0215 2.8666,0 5.0578,-0.6702 7.1923,-2.8047 l -3.2327,-3.2894"
             inkscape:connector-curvature="0" /><path
             id="path3268"
             style="fill:#142c61;fill-opacity:1;fill-rule:nonzero;stroke:none"
             d="m 522.3353,225.4947 9.0897,0 0,-9.0226 -9.0897,0 0,9.0226 z"
             inkscape:connector-curvature="0" /><path
             id="path3270"
             style="fill:#142c61;fill-opacity:1;fill-rule:nonzero;stroke:none"
             d="m 561.4729,216.4721 0,19.2053 c 0,4.3309 -2.7429,5.7951 -5.2434,5.7951 -2.5006,0 -5.3054,-1.4642 -5.3054,-5.7951 l 0,-19.2053 -7.9244,0 0,31.7648 7.744,0 0,-2.9233 c 2.0726,2.1963 5.0011,3.2945 7.9244,3.2945 3.1709,0 5.7281,-1.0415 7.5017,-2.8047 2.5573,-2.5625 3.2275,-5.5477 3.2275,-9.0278 l 0,-20.3035 -7.9244,0"
             inkscape:connector-curvature="0" /><path
             id="path3272"
             style="fill:#142c61;fill-opacity:1;fill-rule:nonzero;stroke:none"
             d="m 589.8864,216.4721 c -6.5272,0 -9.2701,4.5732 -9.2701,9.0845 l 0,34.3272 7.9296,0 0,-33.8374 c 0,-1.8922 0.7889,-2.8666 2.8048,-2.8666 l 3.0471,0 0,-6.7077 -4.5114,0"
             inkscape:connector-curvature="0" /></g></g></g></g></svg>