<?xml version="1.0" encoding="utf-8"?>
<!DOCTYPE svg PUBLIC "-//W3C//DTD SVG 1.1//EN" "http://www.w3.org/Graphics/SVG/1.1/DTD/svg11.dtd">
<svg version="1.1" id="Layer_1" xmlns="http://www.w3.org/2000/svg" xmlns:xlink="http://www.w3.org/1999/xlink" x="0px" y="0px"
	 width="141.732px" height="90.5px" viewBox="0 24.865 141.732 90.5" enable-background="new 0 24.865 141.732 90.5"
	 xml:space="preserve">
    <defs><style type="text/css"><![CDATA[path,rect,polygon { fill: #ffffff; }]]></style></defs>
	<g>
		<path d="M140.426,70.198c0,7.698,0.737,15.646,0,22.571c-0.599,5.619-4.846,10.026-9.529,11.37
			c-2.909,0.829-6.199,0.913-9.359,1.336c-22.67,3.004-43.398,6.187-66.214,9.189c-1.22,0-2.446,0-3.676,0
			c-10.79-1.465-19.255-6.156-17.723-19.389c4.017,0,8.027,0,12.043,0c-0.513,7.007,1.311,10.522,5.516,12.71
			c4.227,2.195,10.603,1.156,15.882,0.502c17.423-2.193,35.935-4.685,53.669-6.858c3.134-0.385,6.556-0.574,8.856-1.334
			c3.895-1.293,6.775-5.319,7.188-9.362c0.637-6.086,0-13.562,0-21.07c0-7.545,0.589-14.874,0-21.062
			c-0.063-0.75-0.315-1.521-0.499-2.173c-1.894-6.879-7.426-6.886-15.044-7.862c-18.143-2.326-36.423-4.867-54.174-7.018
			c-3.086-0.378-6.225-1.012-9.197-1.006c-8.275,0.023-13.057,4.963-12.2,13.543c-4.017-0.109-8.473,0.228-12.208-0.166
			c-1.265-12.845,9.411-18.603,20.061-18.559c4.091,0.018,8.605,0.928,13.043,1.506c17.415,2.261,34.419,4.812,51.491,7.192
			c4.316,0.598,9.059,0.636,12.878,1.837c4.657,1.472,8.674,6.384,9.193,11.704C141.103,54.693,140.426,62.459,140.426,70.198z"/>
		<path d="M127.051,49.801c0,13.318,0,26.643,0,39.962c-4.181,0-8.359,0-12.54,0
			c-3.528-9.173-6.799-18.618-10.363-27.755c-0.392,8.917-0.057,18.552-0.164,27.755c-3.127,0-6.244,0-9.365,0
			c0.114-13.263-0.224-26.975,0.165-39.962c4.129,0,8.249,0,12.374,0c3.307,9.343,6.98,18.321,10.363,27.587
			c0.391-8.864,0.058-18.445,0.17-27.587C120.809,49.801,123.931,49.801,127.051,49.801z"/>
		<path d="M80.573,52.644c-5.799-3.73-16.102-2.833-25.918-2.844c-0.194,0.029-0.182,0.264-0.164,0.5
			c0,13.156,0,26.308,0,39.462c14.473,0.548,26.734,0.505,31.428-8.865C90.649,71.466,87.872,57.338,80.573,52.644z M65.192,82.07
			c0-7.973,0-15.943,0-23.908c-0.021-0.24-0.033-0.478,0.162-0.502c4.392-0.109,7.674,0.946,9.531,3.675
			C79.358,67.902,77.321,84.726,65.192,82.07z"/>
		<path d="M45.967,49.801c0,13.318,0,26.643,0,39.962c-4.073,0-8.144,0-12.208,0c0-13.154,0-26.307,0-39.462
			c-0.012-0.235-0.032-0.47,0.165-0.5C37.94,49.801,41.95,49.801,45.967,49.801z"/>
		<path d="M25.733,70.361c2.525,3.15,2.82,9.308,0.835,13.208c-3.598,7.081-15.652,8.498-24.908,5.188
			c0.22-2.843,0.31-5.821,0.665-8.529c3.619,2.294,14.843,4.594,14.542-2.173c-0.178-4.245-7.58-4.708-11.363-7.356
			c-2.95-2.055-3.792-3.974-4.518-8.191c0-0.943,0-1.893,0-2.843c0.477-10.492,15.065-12.549,24.58-8.861
			c-0.148,2.593-0.202,5.268-0.506,7.695c-3.13-1.904-13.582-4.034-13.372,2.001c0.096,2.803,4.027,4.239,6.516,5.354
			C20.99,67.097,24.017,68.231,25.733,70.361z"/>
	</g>
</svg>
