<svg xmlns:dc="http://purl.org/dc/elements/1.1/" xmlns:cc="http://creativecommons.org/ns#" xmlns:rdf="http://www.w3.org/1999/02/22-rdf-syntax-ns#" xmlns:svg="http://www.w3.org/2000/svg" xmlns="http://www.w3.org/2000/svg" xmlns:sodipodi="http://sodipodi.sourceforge.net/DTD/sodipodi-0.dtd" xmlns:inkscape="http://www.inkscape.org/namespaces/inkscape" version="1.1" id="Layer_1" x="0px" y="0px" width="141.732px" height="90.5px" viewBox="0 0 141.732 90.5" enable-background="new 0 0 141.732 90.5" xml:space="preserve" inkscape:version="0.48.2 r9819"><metadata id="metadata3386"><rdf:RDF><cc:Work rdf:about=""><dc:format>image/svg+xml</dc:format><dc:type rdf:resource="http://purl.org/dc/dcmitype/StillImage"/><dc:title/></cc:Work></rdf:RDF></metadata><defs id="defs3368"><style type="text/css" id="style3370">path,rect,polygon { fill: #002154; }</style></defs>
<g id="g3372" style="fill:#ffffff">
	<path d="M139.778 24.733c-0.019-6.888-4.958-12.756-11.332-13.582L57.264 1.3 C46.065-0.112 34.2 6.3 34.4 15.947v3.725l12.066 0.003v-3.172C46.199 10.2 52.6 5.5 60.5 6.44l67.923 8.7 c4.391 0.7 7.8 4.5 7.9 9.496c0 0 0 37.7 0 40.674c-0.052 4.311-3.65 9.22-8.728 10 c-0.36 0.041-67.001 8.565-67.001 8.565c-8.114 1.064-14.233-3.246-14.17-10.06v-3.804L34.38 70.007v4.628 c0.026 9.9 11.7 15.8 22.9 14.349l71.299-9.821l0.136-0.037c6.525-1.018 11.079-6.934 11.086-13.258l-0.004-0.139 L139.778 24.7" id="path3374" style="fill:#ffffff"/>
	<path d="M3.191 55.078c1.304 0.7 5.1 2.4 8.9 2.376c4.019 0 5.435-1.752 5.435-4.243 c0-2.604-1.755-3.337-4.808-4.528l-2.323-0.904c-6.511-2.543-8.488-6.051-8.488-11.655c0-7.467 5.996-11.715 14.372-11.715 c3.003 0 6.7 0.3 10 1.583l-0.452 7.756c-1.868-0.96-5.096-1.983-8.151-1.983c-3.168 0-5.092 1.299-5.092 3.7 c0 2 1 2.9 4.5 4.528l4.751 2.152c3.568 1.6 6.7 4.1 6.7 10.011c0 8.659-6.223 13.075-15.446 13.1 c-4.755 0-8.551-1.017-10.527-1.528L3.191 55.1" id="path3376" style="fill:#ffffff"/>
	<rect x="34.4" y="25.1" width="12.1" height="39.5" id="rect3378" style="fill:#ffffff"/>
	<path d="M65.397 57.003h2.319c6.109 0 9.168-4.357 9.168-11.997c0-10.127-4.868-12.11-10.64-12.11h-0.847V57.003 M54.758 25.085h15.224c11.6 0 18.1 7.8 18.1 19.526c0 13.694-7.242 19.975-19.746 19.975H54.758V25.085z" id="path3380" style="fill:#ffffff"/>
	<polygon points="114.1,64.6 126.5,64.6 126.5,25.1 117.2,25.1 117.2,52.3 117.1,52.3 106.8,25.1 94.4,25.1 94.4,64.6 103.7,64.6 103.7,37.2 103.9,37.2" id="polygon3382" style="fill:#ffffff"/>
</g>
</svg>
