<?xml version="1.0" encoding="utf-8"?>
<!DOCTYPE svg PUBLIC "-//W3C//DTD SVG 1.1//EN" "http://www.w3.org/Graphics/SVG/1.1/DTD/svg11.dtd">
<svg version="1.1" id="Layer_1" xmlns="http://www.w3.org/2000/svg" xmlns:xlink="http://www.w3.org/1999/xlink" x="0px" y="0px"
	 width="141.732px" height="90.5px" viewBox="0 0 141.732 90.5" enable-background="new 0 0 141.732 90.5" xml:space="preserve">
<defs><style type="text/css"><![CDATA[path,rect,polygon { fill: #002154; }]]></style></defs>
<g>
	<path d="M139.778,24.733c-0.019-6.888-4.958-12.756-11.332-13.582L57.264,1.348
		C46.065-0.112,34.246,6.343,34.38,15.947v3.725l12.066,0.003v-3.172C46.199,10.25,52.615,5.477,60.523,6.44l67.923,8.666
		c4.391,0.718,7.757,4.513,7.897,9.496c0,0,0.005,37.709,0.005,40.674c-0.052,4.311-3.65,9.22-8.728,10.046
		c-0.36,0.041-67.001,8.565-67.001,8.565c-8.114,1.064-14.233-3.246-14.17-10.06v-3.804L34.38,70.007v4.628
		c0.026,9.88,11.685,15.806,22.884,14.349l71.299-9.821l0.136-0.037c6.525-1.018,11.079-6.934,11.086-13.258l-0.004-0.139
		L139.778,24.733"/>
	<path d="M3.191,55.078c1.304,0.736,5.148,2.376,8.94,2.376c4.019,0,5.435-1.752,5.435-4.243
		c0-2.604-1.755-3.337-4.808-4.528l-2.323-0.904c-6.511-2.543-8.488-6.051-8.488-11.655c0-7.467,5.996-11.715,14.372-11.715
		c3.003,0,6.735,0.281,9.963,1.583l-0.452,7.756c-1.868-0.96-5.096-1.983-8.151-1.983c-3.168,0-5.092,1.299-5.092,3.735
		c0,2.037,1.016,2.944,4.524,4.528l4.751,2.152c3.568,1.64,6.679,4.127,6.679,10.011c0,8.659-6.223,13.075-15.446,13.075
		c-4.755,0-8.551-1.017-10.527-1.528L3.191,55.078"/>
	<rect x="34.38" y="25.085" width="12.051" height="39.501"/>
	<path d="M65.397,57.003h2.319c6.109,0,9.168-4.357,9.168-11.997c0-10.127-4.868-12.11-10.64-12.11h-0.847V57.003
		 M54.758,25.085h15.224c11.6,0,18.105,7.759,18.105,19.526c0,13.694-7.242,19.975-19.746,19.975H54.758V25.085z"/>
	<polygon points="114.062,64.586 126.513,64.586 126.513,25.085 117.229,25.085 117.229,52.306 117.118,52.306 
		106.765,25.085 94.424,25.085 94.424,64.586 103.705,64.586 103.705,37.196 103.934,37.196 	"/>
</g>
</svg>
